<svg width="97" height="98" viewBox="0 0 97 98" fill="none" xmlns="http://www.w3.org/2000/svg">
<path d="M87.6205 6.63367H9.11679L6.09741 9.65304V88.1568L9.11679 91.1762H87.6205L90.6399 88.1568V9.65304L87.6205 6.63367ZM84.6012 85.1374H30.2524V73.0599H44.1415C45.9532 76.6832 50.1803 79.0987 54.4074 79.0987C61.05 79.0987 66.4849 73.6638 66.4849 67.0212C66.4849 60.3785 61.05 54.9437 54.4074 54.9437C47.7648 54.9437 42.3299 60.3785 42.3299 67.0212H24.2137V85.1374H12.1362V12.6724H24.2137V26.5615C20.5904 28.3732 18.1749 32.6003 18.1749 36.8274C18.1749 43.47 23.6098 48.9049 30.2524 48.9049C36.895 48.9049 42.3299 43.47 42.3299 36.8274H54.4074C54.4074 43.47 59.8423 48.9049 66.4849 48.9049C73.1275 48.9049 78.5624 43.47 78.5624 36.8274C78.5624 30.1848 73.1275 24.7499 66.4849 24.7499C62.2578 24.7499 58.0307 27.1654 56.219 30.7887H40.5183C38.7067 27.1654 34.4795 24.7499 30.2524 24.7499V12.6724H84.6012V85.1374ZM48.3687 67.0212C48.3687 63.3979 50.7842 60.9824 54.4074 60.9824C58.0307 60.9824 60.4462 63.3979 60.4462 67.0212C60.4462 70.6444 58.0307 73.0599 54.4074 73.0599C50.7842 73.0599 48.3687 70.6444 48.3687 67.0212ZM30.2524 30.7887C33.8757 30.7887 36.2912 33.2042 36.2912 36.8274C36.2912 40.4507 33.8757 42.8662 30.2524 42.8662C26.6292 42.8662 24.2137 40.4507 24.2137 36.8274C24.2137 33.2042 26.6292 30.7887 30.2524 30.7887ZM66.4849 30.7887C70.1082 30.7887 72.5237 33.2042 72.5237 36.8274C72.5237 40.4507 70.1082 42.8662 66.4849 42.8662C62.8617 42.8662 60.4462 40.4507 60.4462 36.8274C60.4462 33.2042 62.8617 30.7887 66.4849 30.7887Z" fill="#F1D136"/>
</svg>
