<svg width="410" height="304" viewBox="0 0 410 304" fill="none" xmlns="http://www.w3.org/2000/svg">
<g filter="url(#filter0_f_473_6829)">
<path d="M205.35 187.608L154.828 158.078L154.247 156.92L153.666 155.762V154.604V149.971V148.813V148.234V147.076L154.247 145.339L154.828 144.181L155.408 143.602L155.989 143.023L156.57 142.444L202.446 115.23L206.511 112.914L208.834 112.335H209.414H209.995H210.576L212.899 112.914L214.641 113.493L215.802 114.072L243.096 130.285L257.613 138.97L265.163 143.602L268.066 145.918L269.228 147.076L269.808 149.392V151.129V154.024V155.762L269.228 157.499C269.228 157.499 225.198 184.699 219.287 187.608C213.376 190.517 210.148 189.989 205.35 187.608Z" fill="#0E0E0E" fill-opacity="0.5"/>
<path d="M206.555 184.208C191.236 174.45 158.83 155.751 156.496 154.119C154.163 152.487 151.51 146.425 156.496 142.735C161.483 139.044 204.093 114.272 204.093 114.272C208.347 111.598 211.272 111.781 216.402 114.272L263.998 142.735C270.409 146.649 271.532 149.95 267.281 154.119C251.963 164.149 219.685 182.581 216.402 184.208C213.119 185.835 208.243 185.459 206.555 184.208Z" fill="#0E0E0E"/>
<path d="M95.461 231.567L72.8556 218.354L72.5958 217.836L72.3359 217.318V216.8V214.727V214.209V213.95V213.432L72.5958 212.655L72.8556 212.136L73.1154 211.877L73.3753 211.618L73.6351 211.359L94.1619 199.183L95.9807 198.146L97.02 197.887H97.2798H97.5397H97.7995L98.8388 198.146L99.6183 198.405L100.138 198.664L112.35 205.919L118.846 209.805L122.224 211.877L123.523 212.914L124.043 213.432L124.302 214.468V215.245V216.541V217.318L124.043 218.095C124.043 218.095 104.342 230.266 101.697 231.567C99.0522 232.869 97.6082 232.633 95.461 231.567Z" fill="#0E0E0E" fill-opacity="0.5"/>
<path d="M96.0002 230.046C89.1462 225.68 74.6463 217.313 73.6022 216.583C72.5581 215.853 71.371 213.14 73.6022 211.489C75.8335 209.838 94.8986 198.754 94.8986 198.754C96.8021 197.558 98.111 197.639 100.406 198.754L121.703 211.489C124.571 213.241 125.074 214.718 123.172 216.583C116.317 221.071 101.875 229.318 100.406 230.046C98.9376 230.774 96.7555 230.606 96.0002 230.046Z" fill="#EEEEEE" fill-opacity="0.15"/>
<path d="M125.602 98.9195L102.996 85.7066L102.736 85.1884L102.477 84.6703V84.1521V82.0795V81.5613V81.3022V80.7841L102.736 80.0069L102.996 79.4887L103.256 79.2296L103.516 78.9705L103.776 78.7115L124.302 66.5348L126.121 65.4985L127.161 65.2394H127.42H127.68H127.94L128.979 65.4985L129.759 65.7576L130.279 66.0167L142.491 73.2708L148.987 77.157L152.364 79.2296L153.664 80.2659L154.183 80.7841L154.443 81.8204V82.5976V83.893V84.6703L154.183 85.4475C154.183 85.4475 134.482 97.6179 131.838 98.9195C129.193 100.221 127.749 99.985 125.602 98.9195Z" fill="#0E0E0E" fill-opacity="0.5"/>
<path d="M126.141 97.3983C119.287 93.032 104.787 84.6657 103.743 83.9355C102.699 83.2053 101.512 80.4927 103.743 78.8415C105.974 77.1903 125.039 66.1065 125.039 66.1065C126.943 64.9099 128.252 64.9917 130.547 66.1065L151.843 78.8415C154.712 80.5929 155.214 82.0698 153.312 83.9355C146.458 88.4231 132.016 96.6702 130.547 97.3983C129.078 98.1264 126.896 97.9579 126.141 97.3983Z" fill="#0E0E0E"/>
<path d="M299.17 100.992L276.564 87.7792L276.304 87.261L276.044 86.7429V86.2247V84.1521V83.634V83.3749V82.8567L276.304 82.0795L276.564 81.5613L276.824 81.3023L277.084 81.0432L277.344 80.7841L297.87 68.6075L299.689 67.5712L300.729 67.3121H300.988H301.248H301.508L302.547 67.5712L303.327 67.8302L303.846 68.0893L316.059 75.3435L322.554 79.2296L325.932 81.3023L327.231 82.3386L327.751 82.8567L328.011 83.893V84.6703V85.9657V86.7429L327.751 87.5201C327.751 87.5201 308.05 99.6905 305.405 100.992C302.761 102.294 301.317 102.058 299.17 100.992Z" fill="#0E0E0E" fill-opacity="0.5"/>
<path d="M299.709 99.4709C292.855 95.1046 278.355 86.7384 277.311 86.0082C276.267 85.2779 275.079 82.5653 277.311 80.9141C279.542 79.263 298.607 68.1791 298.607 68.1791C300.511 66.9826 301.819 67.0643 304.115 68.1791L325.411 80.9141C328.28 82.6655 328.782 84.1425 326.88 86.0082C320.026 90.4957 305.584 98.7429 304.115 99.4709C302.646 100.199 300.464 100.03 299.709 99.4709Z" fill="#0E0E0E"/>
<path d="M296.052 236.231L273.446 223.018L273.186 222.5L272.927 221.981V221.463V219.391V218.872V218.613V218.095L273.186 217.318L273.446 216.8L273.706 216.541L273.966 216.282L274.226 216.023L294.752 203.846L296.571 202.81L297.611 202.551H297.87H298.13H298.39L299.429 202.81L300.209 203.069L300.729 203.328L312.941 210.582L319.436 214.468L322.814 216.541L324.113 217.577L324.633 218.095L324.893 219.131V219.909V221.204V221.981L324.633 222.759C324.633 222.759 304.932 234.929 302.288 236.231C299.643 237.532 298.199 237.296 296.052 236.231Z" fill="#0E0E0E" fill-opacity="0.5"/>
<path d="M296.591 234.709C289.737 230.343 275.237 221.977 274.193 221.247C273.149 220.516 271.962 217.804 274.193 216.153C276.424 214.501 295.489 203.418 295.489 203.418C297.393 202.221 298.702 202.303 300.997 203.418L322.293 216.153C325.162 217.904 325.664 219.381 323.762 221.247C316.908 225.734 302.466 233.981 300.997 234.709C299.528 235.437 297.346 235.269 296.591 234.709Z" fill="#0E0E0E"/>
<path d="M96.0002 230.046C89.1462 225.68 74.6463 217.313 73.6022 216.583C72.5581 215.853 71.371 213.14 73.6022 211.489C75.8335 209.838 94.8986 198.754 94.8986 198.754C96.8021 197.558 98.111 197.639 100.406 198.754L121.703 211.489C124.571 213.241 125.074 214.718 123.172 216.583C116.317 221.071 101.875 229.318 100.406 230.046C98.9376 230.774 96.7555 230.606 96.0002 230.046Z" fill="#0E0E0E"/>
<ellipse cx="98.0593" cy="155.657" rx="20.0071" ry="11.1403" fill="#0E0E0E" fill-opacity="0.5"/>
<ellipse cx="98.0593" cy="153.585" rx="20.0071" ry="11.6585" fill="#0E0E0E"/>
<ellipse cx="212.126" cy="146.072" rx="27.8021" ry="16.84" fill="url(#paint0_linear_473_6829)"/>
<rect x="185.103" y="118.609" width="54.0451" height="11.9176" fill="#0E0E0E"/>
<rect x="184.843" y="118.35" width="54.0451" height="11.9176" fill="#0E0E0E"/>
<rect x="184.324" y="117.832" width="55.6041" height="29.5348" fill="url(#paint1_linear_473_6829)"/>
<ellipse cx="212.126" cy="139.077" rx="27.8021" ry="17.0991" fill="#F1D136"/>
<ellipse cx="212.126" cy="134.931" rx="27.8021" ry="17.0991" fill="#0E0E0E"/>
<ellipse cx="212.126" cy="130.786" rx="27.8021" ry="17.0991" fill="#F1D136"/>
<ellipse cx="212.126" cy="127.159" rx="27.8021" ry="17.0991" fill="#0E0E0E"/>
<path d="M239.428 119.646C239.428 124.054 236.476 128.127 231.526 131.126C226.585 134.118 219.727 135.986 212.126 135.986C204.524 135.986 197.667 134.118 192.726 131.126C187.776 128.127 184.824 124.054 184.824 119.646C184.824 115.238 187.776 111.164 192.726 108.166C197.667 105.173 204.524 103.306 212.126 103.306C219.727 103.306 226.585 105.173 231.526 108.166C236.476 111.164 239.428 115.238 239.428 119.646Z" stroke="#AAAAAA"/>
<ellipse cx="212.126" cy="119.128" rx="27.8021" ry="16.84" fill="#0E0E0E"/>
<path d="M231.633 118.35C231.633 121.392 229.533 124.235 225.943 126.346C222.365 128.45 217.389 129.768 211.866 129.768C206.343 129.768 201.367 128.45 197.789 126.346C194.199 124.235 192.099 121.392 192.099 118.35C192.099 115.309 194.199 112.465 197.789 110.354C201.367 108.25 206.343 106.933 211.866 106.933C217.389 106.933 222.365 108.25 225.943 110.354C229.533 112.465 231.633 115.309 231.633 118.35Z" stroke="#EEEEEE" stroke-opacity="0.15"/>
<ellipse cx="320.995" cy="154.621" rx="20.0071" ry="11.1403" fill="#0E0E0E" fill-opacity="0.5"/>
<ellipse cx="320.995" cy="152.549" rx="20.0071" ry="11.6585" fill="#0E0E0E"/>
<path d="M111.061 152.808C111.061 154.674 109.647 156.422 107.235 157.717C104.833 159.007 101.497 159.812 97.7994 159.812C94.1013 159.812 90.7657 159.007 88.3637 157.717C85.9513 156.422 84.5381 154.674 84.5381 152.808C84.5381 150.941 85.9513 149.194 88.3637 147.898C90.7657 146.609 94.1013 145.803 97.7994 145.803C101.497 145.803 104.833 146.609 107.235 147.898C109.647 149.194 111.061 150.941 111.061 152.808Z" stroke="#EEEEEE" stroke-opacity="0.15" stroke-width="0.5"/>
<path d="M333.997 151.253C333.997 153.12 332.583 154.867 330.171 156.162C327.769 157.452 324.433 158.257 320.735 158.257C317.037 158.257 313.702 157.452 311.3 156.162C308.887 154.867 307.474 153.12 307.474 151.253C307.474 149.386 308.887 147.639 311.3 146.344C313.702 145.054 317.037 144.249 320.735 144.249C324.433 144.249 327.769 145.054 330.171 146.344C332.583 147.639 333.997 149.386 333.997 151.253Z" stroke="#EEEEEE" stroke-opacity="0.15" stroke-width="0.5"/>
<path d="M91.5635 195.296L94.3656 213.95H103.027L104.555 195.296H91.5635Z" fill="url(#paint2_linear_473_6829)"/>
<path d="M121.704 64.2031L123.949 81.5218L132.43 81.8204L134.176 64.2031H121.704Z" fill="url(#paint3_linear_473_6829)"/>
<path d="M295.272 65.2394C296.206 71.0831 298.074 82.8913 298.074 83.3749H306.735L308.264 65.2394H295.272Z" fill="url(#paint4_linear_473_6829)"/>
<path d="M292.674 202.032C293.353 207.121 294.763 217.666 294.966 219.131H303.628L305.665 202.032H292.674Z" fill="url(#paint5_linear_473_6829)"/>
<path d="M117.807 167.834L200.173 216.281C207.355 218.407 211.448 218.48 218.881 216.281L258.376 191.7M300.469 165.502L258.376 191.7M119.106 204.364L149.246 186.747M117.807 142.962L199.394 97.1057C204.461 95.3309 208.163 93.2571 217.842 96.0694L256.037 118.472M297.351 142.703L256.037 118.472M143.79 97.106L168.474 114.205M256.037 118.472C256.869 117.96 276.478 106.778 286.178 101.251M97.7995 104.36L4 156.953L66.8794 195.555M258.376 191.7L282.28 206.696" stroke="#F1D136"/>
<path d="M404.661 103.324L352.695 134.154L352.175 134.672L353.215 135.449L407 103.324L344.64 64.4622L388.032 37L342.042 64.9804L404.661 103.324Z" fill="#F1D136"/>
<path d="M137.294 246.594L178.607 222.24L179.387 223.277L139.632 246.594L186.662 276.906L146.648 301L184.064 276.388L137.294 246.594Z" fill="#F1D136"/>
<path d="M132.357 218.613C122.743 224.745 103.412 237.008 102.996 237.008C98.7439 238.25 96.6443 238.074 93.3823 236.231L64.0213 218.613C62.7587 216.531 62.7851 215.462 64.0213 213.691L95.461 195.555C97.4039 195.073 98.6674 194.945 101.957 195.555C111.484 201.341 131.081 212.757 132.357 213.691C134.311 215.121 133.619 218.294 132.357 218.613Z" stroke="#AAAAAA" stroke-width="0.5"/>
<path d="M161.978 85.4474C152.364 91.5789 133.033 103.842 132.617 103.842C128.365 105.085 126.265 104.908 123.003 103.065L93.6422 85.4474C92.3796 83.3652 92.406 82.2963 93.6422 80.5249L125.082 62.3895C127.025 61.9073 128.288 61.7794 131.578 62.3895C141.105 68.1755 160.702 79.5906 161.978 80.5249C163.932 81.9555 163.24 85.1279 161.978 85.4474Z" stroke="#AAAAAA" stroke-width="0.5"/>
<path d="M332.688 222.24C323.074 228.372 303.743 240.635 303.327 240.635C299.075 241.877 296.975 241.701 293.713 239.858L264.352 222.24C263.09 220.158 263.116 219.089 264.352 217.318L295.792 199.182C297.735 198.7 298.998 198.572 302.288 199.182C311.815 204.968 331.412 216.383 332.688 217.318C334.642 218.748 333.95 221.921 332.688 222.24Z" stroke="#AAAAAA" stroke-width="0.5"/>
<path d="M335.546 87.7792C325.932 93.9107 306.601 106.174 306.185 106.174C301.933 107.416 299.833 107.24 296.571 105.396L267.21 87.7792C265.948 85.697 265.974 84.6281 267.21 82.8567L298.65 64.7212C300.593 64.239 301.856 64.1111 305.146 64.7212C314.673 70.5073 334.27 81.9224 335.546 82.8567C337.5 84.2872 336.808 87.4597 335.546 87.7792Z" stroke="#AAAAAA" stroke-width="0.5"/>
<path d="M97.02 225.608C92.1698 222.499 81.9091 216.542 81.1702 216.022C80.4314 215.502 79.5913 213.571 81.1702 212.395C82.7492 211.22 96.2405 203.328 96.2405 203.328C97.5875 202.476 98.5137 202.534 100.138 203.328L115.208 212.395C117.238 213.642 117.594 214.694 116.248 216.022C111.397 219.218 101.177 225.09 100.138 225.608C99.0986 226.127 97.5545 226.007 97.02 225.608Z" stroke="#EEEEEE" stroke-opacity="0.15" stroke-width="0.5"/>
<path d="M126.498 92.2827C121.647 89.1738 111.387 83.2168 110.648 82.6968C109.909 82.1769 109.069 80.2454 110.648 79.0698C112.227 77.8941 125.718 70.002 125.718 70.002C127.065 69.1501 127.991 69.2083 129.616 70.002L144.686 79.0698C146.716 80.3168 147.071 81.3684 145.725 82.6968C140.875 85.8921 130.655 91.7643 129.616 92.2827C128.576 92.8011 127.032 92.6811 126.498 92.2827Z" stroke="#EEEEEE" stroke-opacity="0.15" stroke-width="0.5"/>
<path d="M300.585 94.3553C295.735 91.2464 285.474 85.2894 284.735 84.7695C283.997 84.2495 283.156 82.3181 284.735 81.1424C286.314 79.9667 299.806 72.0747 299.806 72.0747C301.153 71.2227 302.079 71.2809 303.703 72.0747L318.773 81.1424C320.803 82.3894 321.159 83.441 319.813 84.7695C314.963 87.9648 304.743 93.8369 303.703 94.3553C302.664 94.8737 301.12 94.7538 300.585 94.3553Z" stroke="#EEEEEE" stroke-opacity="0.15" stroke-width="0.5"/>
<path d="M297.467 229.594C292.617 226.485 282.356 220.528 281.618 220.008C280.879 219.488 280.039 217.557 281.618 216.381C283.196 215.205 296.688 207.313 296.688 207.313C298.035 206.461 298.961 206.519 300.585 207.313L315.656 216.381C317.685 217.628 318.041 218.68 316.695 220.008C311.845 223.203 301.625 229.075 300.585 229.594C299.546 230.112 298.002 229.992 297.467 229.594Z" stroke="#EEEEEE" stroke-opacity="0.15" stroke-width="0.5"/>
<path d="M74.1646 198.146C74.1646 198.834 73.7838 199.478 73.1255 199.96C72.4674 200.441 71.546 200.746 70.5171 200.746C69.4883 200.746 68.5669 200.441 67.9087 199.96C67.2504 199.478 66.8696 198.834 66.8696 198.146C66.8696 197.458 67.2504 196.814 67.9087 196.333C68.5669 195.852 69.4883 195.546 70.5171 195.546C71.546 195.546 72.4674 195.852 73.1255 196.333C73.7838 196.814 74.1646 197.458 74.1646 198.146Z" stroke="#AAAAAA" stroke-width="0.5"/>
<ellipse cx="70.5172" cy="198.146" rx="1.29916" ry="0.777237" fill="#F1D136"/>
<path d="M350.558 137.015C350.564 137.164 350.488 137.323 350.318 137.457C350.148 137.591 349.899 137.686 349.608 137.696C349.318 137.706 349.061 137.628 348.882 137.506C348.703 137.384 348.615 137.231 348.609 137.082C348.604 136.933 348.68 136.774 348.849 136.64C349.019 136.506 349.268 136.411 349.559 136.401C349.849 136.391 350.106 136.469 350.285 136.591C350.464 136.712 350.552 136.866 350.558 137.015Z" stroke="#AAAAAA" stroke-width="0.5"/>
<path d="M186.412 219.65C186.412 221.193 184.934 222.509 183.025 222.509C181.115 222.509 179.637 221.193 179.637 219.65C179.637 218.106 181.115 216.791 183.025 216.791C184.934 216.791 186.412 218.106 186.412 219.65Z" stroke="#AAAAAA" stroke-width="0.5"/>
<path d="M105.864 101.251C105.864 102.634 104.408 103.851 102.477 103.851C100.545 103.851 99.0889 102.634 99.0889 101.251C99.0889 99.8688 100.545 98.6514 102.477 98.6514C104.408 98.6514 105.864 99.8688 105.864 101.251Z" stroke="#AAAAAA" stroke-width="0.5"/>
<path d="M352.185 137.004C352.185 138.108 351.068 139.086 349.577 139.086C348.087 139.086 346.969 138.108 346.969 137.004C346.969 135.899 348.087 134.922 349.577 134.922C351.068 134.922 352.185 135.899 352.185 137.004Z" stroke="#AAAAAA" stroke-width="0.5"/>
<path d="M184.341 219.662C184.349 219.898 184.234 220.134 184.006 220.323C183.778 220.511 183.447 220.642 183.067 220.656C182.687 220.669 182.348 220.563 182.107 220.391C181.866 220.22 181.733 219.993 181.725 219.756C181.716 219.52 181.832 219.284 182.06 219.095C182.288 218.907 182.618 218.776 182.998 218.762C183.378 218.749 183.717 218.855 183.959 219.027C184.199 219.198 184.332 219.425 184.341 219.662Z" stroke="#AAAAAA" stroke-width="0.5"/>
<path d="M103.793 101.262C103.801 101.462 103.694 101.671 103.465 101.845C103.237 102.018 102.903 102.14 102.518 102.153C102.133 102.165 101.791 102.066 101.549 101.909C101.307 101.751 101.184 101.549 101.176 101.349C101.169 101.149 101.275 100.94 101.504 100.766C101.733 100.593 102.066 100.471 102.451 100.459C102.836 100.446 103.178 100.545 103.42 100.702C103.662 100.861 103.785 101.063 103.793 101.262Z" stroke="#AAAAAA" stroke-width="0.5"/>
<ellipse cx="212.386" cy="117.573" rx="10.6531" ry="6.73602" fill="#F1D136"/>
<ellipse cx="98.579" cy="213.95" rx="4.41715" ry="3.10893" fill="#F1D136"/>
<ellipse cx="128.2" cy="81.3022" rx="4.41715" ry="3.10893" fill="#F1D136"/>
<ellipse cx="302.288" cy="83.3749" rx="4.41716" ry="3.10893" fill="#F1D136"/>
<ellipse cx="299.17" cy="218.613" rx="4.41716" ry="3.10893" fill="#F1D136"/>
<ellipse cx="320.476" cy="151.253" rx="7.01547" ry="4.14524" fill="#F1D136"/>
<path d="M326.991 140.372C326.991 141.268 326.373 142.169 325.182 142.873C324.002 143.57 322.339 144.017 320.476 144.017C318.612 144.017 316.95 143.57 315.77 142.873C314.578 142.169 313.96 141.268 313.96 140.372C313.96 139.476 314.578 138.575 315.77 137.871C316.95 137.174 318.612 136.727 320.476 136.727C322.339 136.727 324.002 137.174 325.182 137.871C326.373 138.575 326.991 139.476 326.991 140.372Z" stroke="#F1D136"/>
<path d="M326.991 128.972C326.991 129.869 326.373 130.769 325.182 131.473C324.002 132.17 322.339 132.618 320.476 132.618C318.612 132.618 316.95 132.17 315.77 131.473C314.578 130.769 313.96 129.869 313.96 128.972C313.96 128.076 314.578 127.176 315.77 126.472C316.95 125.775 318.612 125.327 320.476 125.327C322.339 125.327 324.002 125.775 325.182 126.472C326.373 127.176 326.991 128.076 326.991 128.972Z" stroke="#F1D136"/>
<ellipse cx="97.5396" cy="152.289" rx="7.01547" ry="4.14524" fill="#F1D136"/>
<path d="M104.055 141.926C104.055 142.823 103.437 143.723 102.246 144.427C101.066 145.124 99.4032 145.572 97.5396 145.572C95.6761 145.572 94.0133 145.124 92.8333 144.427C91.6421 143.723 91.0242 142.823 91.0242 141.926C91.0242 141.03 91.6421 140.13 92.8333 139.426C94.0133 138.728 95.6761 138.281 97.5396 138.281C99.4032 138.281 101.066 138.728 102.246 139.426C103.437 140.13 104.055 141.03 104.055 141.926Z" stroke="#F1D136"/>
<path d="M104.055 131.045C104.055 131.941 103.437 132.842 102.246 133.546C101.066 134.243 99.4032 134.69 97.5396 134.69C95.6761 134.69 94.0133 134.243 92.8333 133.546C91.6421 132.842 91.0242 131.941 91.0242 131.045C91.0242 130.149 91.6421 129.248 92.8333 128.544C94.0133 127.847 95.6761 127.4 97.5396 127.4C99.4032 127.4 101.066 127.847 102.246 128.544C103.437 129.248 104.055 130.149 104.055 131.045Z" stroke="#F1D136"/>
<path d="M348.547 153.067C348.547 157.596 345.516 161.738 340.525 164.761C335.539 167.781 328.635 169.657 320.995 169.657C313.356 169.657 306.452 167.781 301.466 164.761C296.475 161.738 293.443 157.596 293.443 153.067C293.443 148.538 296.475 144.396 301.466 141.373C306.452 138.353 313.356 136.477 320.995 136.477C328.635 136.477 335.539 138.353 340.525 141.373C345.516 144.396 348.547 148.538 348.547 153.067Z" stroke="#AAAAAA" stroke-width="0.5"/>
<path d="M125.611 155.139C125.611 159.521 122.584 163.534 117.592 166.465C112.605 169.393 105.7 171.211 98.0594 171.211C90.4186 171.211 83.5134 169.393 78.5269 166.465C73.5346 163.534 70.5073 159.521 70.5073 155.139C70.5073 150.757 73.5346 146.745 78.5269 143.814C83.5134 140.886 90.4186 139.067 98.0594 139.067C105.7 139.067 112.605 140.886 117.592 143.814C122.584 146.745 125.611 150.757 125.611 155.139Z" stroke="#AAAAAA" stroke-width="0.5"/>
<path d="M171.592 43.4769L201.372 115.555L201.631 115.847V117.306L202.149 119.056L203.185 120.807L204.22 121.683L204.997 122.266L207.069 123.434L209.141 124.017L211.212 124.309H212.248H213.543L215.356 124.017L216.391 123.725L217.427 123.434L218.463 122.85L219.499 122.266L220.276 121.683L221.312 120.807L222.089 119.64L222.865 117.889V115.555L221.83 112.928L248.502 43.4769H171.592Z" fill="url(#paint6_linear_473_6829)"/>
<rect x="90.5242" y="128.973" width="14.0309" height="22.7988" fill="url(#paint7_linear_473_6829)"/>
<rect x="313.46" y="128.973" width="14.0309" height="22.7988" fill="url(#paint8_linear_473_6829)"/>
<ellipse cx="197.575" cy="79.2296" rx="2.85816" ry="2.84985" fill="#F1D136"/>
<ellipse cx="225.637" cy="83.3749" rx="1.29916" ry="1.29539" fill="#F1D136"/>
<ellipse cx="209.527" cy="51.7674" rx="2.33849" ry="2.3317" fill="#F1D136"/>
<ellipse cx="219.921" cy="63.685" rx="0.779495" ry="0.777232" fill="#F1D136"/>
<ellipse cx="196.796" cy="34.9274" rx="2.59832" ry="2.59078" fill="#F1D136"/>
<ellipse cx="207.968" cy="5.13346" rx="1.29916" ry="1.29539" fill="#F1D136"/>
</g>
<defs>
<filter id="filter0_f_473_6829" x="0.0124512" y="0.838074" width="409.988" height="303.162" filterUnits="userSpaceOnUse" color-interpolation-filters="sRGB">
<feFlood flood-opacity="0" result="BackgroundImageFix"/>
<feBlend mode="normal" in="SourceGraphic" in2="BackgroundImageFix" result="shape"/>
<feGaussianBlur stdDeviation="1.5" result="effect1_foregroundBlur_473_6829"/>
</filter>
<linearGradient id="paint0_linear_473_6829" x1="186.143" y1="151.512" x2="237.07" y2="150.991" gradientUnits="userSpaceOnUse">
<stop offset="0.207701" stop-color="#919191"/>
<stop offset="1" stop-color="#0E0E0E" stop-opacity="0.17"/>
</linearGradient>
<linearGradient id="paint1_linear_473_6829" x1="186.143" y1="137.371" x2="237.068" y2="136.776" gradientUnits="userSpaceOnUse">
<stop offset="0.207701" stop-color="#2D2C2C"/>
<stop offset="1" stop-color="#0E0E0E" stop-opacity="0"/>
</linearGradient>
<linearGradient id="paint2_linear_473_6829" x1="98.0593" y1="195.296" x2="98.0593" y2="213.95" gradientUnits="userSpaceOnUse">
<stop offset="0.0968749" stop-color="#F1D136" stop-opacity="0"/>
<stop offset="0.341667" stop-color="#F1D136" stop-opacity="0.06"/>
<stop offset="0.570833" stop-color="#F1D136" stop-opacity="0.18"/>
<stop offset="1" stop-color="#F1D136"/>
</linearGradient>
<linearGradient id="paint3_linear_473_6829" x1="127.94" y1="64.2031" x2="127.94" y2="81.8204" gradientUnits="userSpaceOnUse">
<stop offset="0.0968749" stop-color="#F1D136" stop-opacity="0"/>
<stop offset="0.341667" stop-color="#F1D136" stop-opacity="0.06"/>
<stop offset="0.570833" stop-color="#F1D136" stop-opacity="0.18"/>
<stop offset="1" stop-color="#F1D136"/>
</linearGradient>
<linearGradient id="paint4_linear_473_6829" x1="301.768" y1="65.2394" x2="301.768" y2="83.3749" gradientUnits="userSpaceOnUse">
<stop offset="0.0968749" stop-color="#F1D136" stop-opacity="0"/>
<stop offset="0.341667" stop-color="#F1D136" stop-opacity="0.06"/>
<stop offset="0.570833" stop-color="#F1D136" stop-opacity="0.18"/>
<stop offset="1" stop-color="#F1D136"/>
</linearGradient>
<linearGradient id="paint5_linear_473_6829" x1="299.17" y1="202.032" x2="299.17" y2="219.131" gradientUnits="userSpaceOnUse">
<stop offset="0.0968749" stop-color="#F1D136" stop-opacity="0"/>
<stop offset="0.341667" stop-color="#F1D136" stop-opacity="0.06"/>
<stop offset="0.570833" stop-color="#F1D136" stop-opacity="0.18"/>
<stop offset="1" stop-color="#F1D136"/>
</linearGradient>
<linearGradient id="paint6_linear_473_6829" x1="210.047" y1="43.4769" x2="210.047" y2="124.309" gradientUnits="userSpaceOnUse">
<stop stop-color="#F1D136" stop-opacity="0"/>
<stop offset="0.169792" stop-color="#F1D136" stop-opacity="0.02"/>
<stop offset="0.315625" stop-color="#F1D136" stop-opacity="0.06"/>
<stop offset="0.482292" stop-color="#F1D136" stop-opacity="0.09"/>
<stop offset="1" stop-color="#F1D136" stop-opacity="0.82"/>
</linearGradient>
<linearGradient id="paint7_linear_473_6829" x1="97.5396" y1="128.973" x2="97.5396" y2="151.771" gradientUnits="userSpaceOnUse">
<stop offset="0.22608" stop-color="#F1D136" stop-opacity="0"/>
<stop offset="1" stop-color="#F1D136" stop-opacity="0.43"/>
</linearGradient>
<linearGradient id="paint8_linear_473_6829" x1="320.476" y1="128.973" x2="320.476" y2="151.771" gradientUnits="userSpaceOnUse">
<stop offset="0.22608" stop-color="#F1D136" stop-opacity="0"/>
<stop offset="1" stop-color="#F1D136" stop-opacity="0.43"/>
</linearGradient>
</defs>
</svg>
