<svg width="778" height="574" viewBox="0 0 778 574" fill="none" xmlns="http://www.w3.org/2000/svg">
<path d="M389.461 354.662L292.241 297.671L291.123 295.436L290.006 293.201V290.966V282.026V279.791V278.674V276.439L291.123 273.086L292.241 270.851L293.358 269.734L294.476 268.616L295.593 267.499L383.873 214.978L391.696 210.508L396.165 209.39H397.283H398.4H399.518L403.988 210.508L407.34 211.625L409.575 212.743L462.096 244.032L490.033 260.794L504.56 269.734L510.148 274.204L512.383 276.439L513.5 280.909V284.261V289.848V293.201L512.383 296.553C512.383 296.553 427.655 349.047 416.28 354.662C404.905 360.276 398.695 359.258 389.461 354.662Z" fill="#EEEEEE" fill-opacity="0.05"/>
<path d="M391.779 348.1C362.302 329.267 299.942 293.181 295.452 290.032C290.961 286.882 285.855 275.182 295.452 268.06C305.048 260.938 387.042 213.13 387.042 213.13C395.228 207.969 400.857 208.322 410.729 213.13L502.32 268.06C514.656 275.614 516.817 281.984 508.636 290.032C479.159 309.388 417.046 344.96 410.729 348.1C404.412 351.241 395.028 350.514 391.779 348.1Z" fill="#0E0E0E"/>
<path d="M178 439.5L134.5 414L134 413L133.5 412V411V407V406V405.5V404.5L134 403L134.5 402L135 401.5L135.5 401L136 400.5L175.5 377L179 375L181 374.5H181.5H182H182.5L184.5 375L186 375.5L187 376L210.5 390L223 397.5L229.5 401.5L232 403.5L233 404.5L233.5 406.5V408V410.5V412L233 413.5C233 413.5 195.089 436.988 190 439.5C184.911 442.012 182.132 441.556 178 439.5Z" fill="#EEEEEE" fill-opacity="0.05"/>
<path d="M179.038 436.564C165.848 428.138 137.946 411.991 135.937 410.582C133.928 409.173 131.643 403.938 135.937 400.751C140.23 397.564 176.918 376.173 176.918 376.173C180.581 373.864 183.099 374.022 187.516 376.173L228.498 400.751C234.017 404.131 234.984 406.981 231.324 410.582C218.134 419.243 190.343 435.159 187.516 436.564C184.69 437.969 180.491 437.644 179.038 436.564Z" fill="#EEEEEE" fill-opacity="0.15"/>
<path d="M236 183.5L192.5 158L192 157L191.5 156V155V151V150V149.5V148.5L192 147L192.5 146L193 145.5L193.5 145L194 144.5L233.5 121L237 119L239 118.5H239.5H240H240.5L242.5 119L244 119.5L245 120L268.5 134L281 141.5L287.5 145.5L290 147.5L291 148.5L291.5 150.5V152V154.5V156L291 157.5C291 157.5 253.089 180.988 248 183.5C242.911 186.012 240.132 185.556 236 183.5Z" fill="#EEEEEE" fill-opacity="0.05"/>
<path d="M237.038 180.564C223.848 172.138 195.946 155.991 193.937 154.582C191.928 153.173 189.643 147.938 193.937 144.751C198.23 141.564 234.918 120.173 234.918 120.173C238.581 117.864 241.099 118.022 245.516 120.173L286.498 144.751C292.017 148.131 292.984 150.981 289.324 154.582C276.134 163.243 248.343 179.159 245.516 180.564C242.69 181.969 238.491 181.644 237.038 180.564Z" fill="#0E0E0E"/>
<path d="M570 187.5L526.5 162L526 161L525.5 160V159V155V154V153.5V152.5L526 151L526.5 150L527 149.5L527.5 149L528 148.5L567.5 125L571 123L573 122.5H573.5H574H574.5L576.5 123L578 123.5L579 124L602.5 138L615 145.5L621.5 149.5L624 151.5L625 152.5L625.5 154.5V156V158.5V160L625 161.5C625 161.5 587.089 184.988 582 187.5C576.911 190.012 574.132 189.556 570 187.5Z" fill="#EEEEEE" fill-opacity="0.05"/>
<path d="M571.038 184.564C557.848 176.138 529.946 159.991 527.937 158.582C525.928 157.173 523.643 151.938 527.937 148.751C532.23 145.564 568.918 124.173 568.918 124.173C572.581 121.864 575.099 122.022 579.516 124.173L620.498 148.751C626.017 152.131 626.984 154.981 623.324 158.582C610.134 167.243 582.343 183.159 579.516 184.564C576.69 185.969 572.491 185.644 571.038 184.564Z" fill="#0E0E0E"/>
<path d="M564 448.5L520.5 423L520 422L519.5 421V420V416V415V414.5V413.5L520 412L520.5 411L521 410.5L521.5 410L522 409.5L561.5 386L565 384L567 383.5H567.5H568H568.5L570.5 384L572 384.5L573 385L596.5 399L609 406.5L615.5 410.5L618 412.5L619 413.5L619.5 415.5V417V419.5V421L619 422.5C619 422.5 581.089 445.988 576 448.5C570.911 451.012 568.132 450.556 564 448.5Z" fill="#EEEEEE" fill-opacity="0.05"/>
<path d="M565.038 445.564C551.848 437.138 523.946 420.991 521.937 419.582C519.928 418.173 517.643 412.938 521.937 409.751C526.23 406.564 562.918 385.173 562.918 385.173C566.581 382.864 569.099 383.022 573.516 385.173L614.498 409.751C620.017 413.131 620.984 415.981 617.324 419.582C604.134 428.243 576.343 444.159 573.516 445.564C570.69 446.969 566.491 446.644 565.038 445.564Z" fill="#0E0E0E"/>
<path d="M179.038 436.564C165.848 428.138 137.946 411.991 135.937 410.582C133.928 409.173 131.643 403.938 135.937 400.751C140.23 397.564 176.918 376.173 176.918 376.173C180.581 373.864 183.099 374.022 187.516 376.173L228.498 400.751C234.017 404.131 234.984 406.981 231.324 410.582C218.134 419.243 190.343 435.159 187.516 436.564C184.69 437.969 180.491 437.644 179.038 436.564Z" fill="#0E0E0E"/>
<ellipse cx="183" cy="293" rx="38.5" ry="21.5" fill="#EEEEEE" fill-opacity="0.05"/>
<ellipse cx="183" cy="289" rx="38.5" ry="22.5" fill="#0E0E0E"/>
<ellipse cx="402.5" cy="274.5" rx="53.5" ry="32.5" fill="url(#paint0_linear_445_4893)"/>
<rect x="350.5" y="221.5" width="104" height="23" fill="#0E0E0E"/>
<rect x="350" y="221" width="104" height="23" fill="#0E0E0E"/>
<rect x="349" y="220" width="107" height="57" fill="url(#paint1_linear_445_4893)"/>
<ellipse cx="402.5" cy="261" rx="53.5" ry="33" fill="#F1D136"/>
<ellipse cx="402.5" cy="253" rx="53.5" ry="33" fill="#0E0E0E"/>
<ellipse cx="402.5" cy="245" rx="53.5" ry="33" fill="#F1D136"/>
<ellipse cx="402.5" cy="238" rx="53.5" ry="33" fill="#0E0E0E"/>
<path d="M455.5 223.5C455.5 232.233 449.671 240.222 440.071 246.054C430.479 251.88 417.197 255.5 402.5 255.5C387.803 255.5 374.521 251.88 364.929 246.054C355.329 240.222 349.5 232.233 349.5 223.5C349.5 214.767 355.329 206.778 364.929 200.946C374.521 195.12 387.803 191.5 402.5 191.5C417.197 191.5 430.479 195.12 440.071 200.946C449.671 206.778 455.5 214.767 455.5 223.5Z" stroke="#AAAAAA"/>
<ellipse cx="402.5" cy="222.5" rx="53.5" ry="32.5" fill="#0E0E0E"/>
<path d="M440.5 221C440.5 227.102 436.303 232.717 429.323 236.833C422.355 240.942 412.696 243.5 402 243.5C391.304 243.5 381.645 240.942 374.677 236.833C367.697 232.717 363.5 227.102 363.5 221C363.5 214.898 367.697 209.283 374.677 205.167C381.645 201.058 391.304 198.5 402 198.5C412.696 198.5 422.355 201.058 429.323 205.167C436.303 209.283 440.5 214.898 440.5 221Z" stroke="#EEEEEE" stroke-opacity="0.15"/>
<ellipse cx="612" cy="291" rx="38.5" ry="21.5" fill="#EEEEEE" fill-opacity="0.05"/>
<ellipse cx="612" cy="287" rx="38.5" ry="22.5" fill="#0E0E0E"/>
<path d="M208.25 287.5C208.25 291.23 205.438 294.664 200.766 297.179C196.104 299.69 189.647 301.25 182.5 301.25C175.353 301.25 168.896 299.69 164.234 297.179C159.562 294.664 156.75 291.23 156.75 287.5C156.75 283.77 159.562 280.336 164.234 277.821C168.896 275.31 175.353 273.75 182.5 273.75C189.647 273.75 196.104 275.31 200.766 277.821C205.438 280.336 208.25 283.77 208.25 287.5Z" stroke="#EEEEEE" stroke-opacity="0.15" stroke-width="0.5"/>
<path d="M637.25 284.5C637.25 288.23 634.438 291.664 629.766 294.179C625.104 296.69 618.647 298.25 611.5 298.25C604.353 298.25 597.896 296.69 593.234 294.179C588.562 291.664 585.75 288.23 585.75 284.5C585.75 280.77 588.562 277.336 593.234 274.821C597.896 272.31 604.353 270.75 611.5 270.75C618.647 270.75 625.104 272.31 629.766 274.821C634.438 277.336 637.25 280.77 637.25 284.5Z" stroke="#EEEEEE" stroke-opacity="0.15" stroke-width="0.5"/>
<path d="M170.5 369.5L175.892 405.5H192.559L195.5 369.5H170.5Z" fill="url(#paint2_linear_445_4893)"/>
<path d="M228.5 116.5L232.82 149.924L249.14 150.5L252.5 116.5H228.5Z" fill="url(#paint3_linear_445_4893)"/>
<path d="M562.5 118.5C564.297 129.778 567.892 152.567 567.892 153.5H584.559L587.5 118.5H562.5Z" fill="url(#paint4_linear_445_4893)"/>
<path d="M557.5 382.5C558.807 392.321 561.52 412.671 561.912 415.5H578.578L582.5 382.5H557.5Z" fill="url(#paint5_linear_445_4893)"/>
<path d="M221 316.499L379.5 409.999C393.319 414.101 401.197 414.243 415.5 409.999L491.5 362.56M572.5 311.999L491.5 362.56M223.5 386.999L281.5 352.999M221 268.5L378 180C387.751 176.574 394.874 172.572 413.5 178L487 221.235M566.5 268L487 221.235M271 180L318.5 213M487 221.235C488.6 220.247 526.333 198.667 545 188M182.5 194L2 295.5L123 370M491.5 362.56L537.5 391.5" stroke="#F1D136" stroke-width="2"/>
<path d="M773 192L673 251.5L672 252.5L674 254L777.5 192L657.5 117L741 64L652.5 118L773 192Z" fill="#F1D136"/>
<path d="M258.5 468.5L338 421.5L339.5 423.5L263 468.5L353.5 527L276.5 573.5L348.5 526L258.5 468.5Z" fill="#F1D136"/>
<path d="M249 414.5C230.5 426.333 193.3 450 192.5 450C184.317 452.398 180.277 452.058 174 448.5L117.5 414.5C115.07 410.482 115.121 408.419 117.5 405L178 370C181.739 369.069 184.17 368.822 190.5 370C208.833 381.166 246.545 403.197 249 405C252.76 407.761 251.428 413.883 249 414.5Z" stroke="#AAAAAA"/>
<path d="M306 157.5C287.5 169.333 250.3 193 249.5 193C241.317 195.398 237.277 195.058 231 191.5L174.5 157.5C172.07 153.481 172.121 151.418 174.5 148L235 113C238.739 112.069 241.17 111.822 247.5 113C265.833 124.166 303.545 146.197 306 148C309.76 150.761 308.428 156.883 306 157.5Z" stroke="#AAAAAA"/>
<path d="M634.5 421.5C616 433.333 578.8 457 578 457C569.817 459.398 565.777 459.058 559.5 455.5L503 421.5C500.57 417.481 500.621 415.418 503 412L563.5 377C567.239 376.069 569.67 375.822 576 377C594.333 388.166 632.045 410.197 634.5 412C638.26 414.761 636.928 420.883 634.5 421.5Z" stroke="#AAAAAA"/>
<path d="M640 162C621.5 173.833 584.3 197.5 583.5 197.5C575.317 199.898 571.277 199.558 565 196L508.5 162C506.07 157.982 506.121 155.919 508.5 152.5L569 117.5C572.739 116.569 575.17 116.322 581.5 117.5C599.833 128.667 637.545 150.697 640 152.5C643.76 155.261 642.428 161.383 640 162Z" stroke="#AAAAAA"/>
<path d="M181 428C171.667 422 151.922 410.503 150.5 409.5C149.078 408.496 147.462 404.769 150.5 402.5C153.538 400.231 179.5 385 179.5 385C182.092 383.355 183.874 383.468 187 385L216 402.5C219.906 404.906 220.59 406.936 218 409.5C208.667 415.666 189 426.999 187 428C185 429 182.029 428.768 181 428Z" stroke="#EEEEEE" stroke-opacity="0.15" stroke-width="0.5"/>
<path d="M237.724 170.691C228.391 164.691 208.646 153.195 207.224 152.191C205.803 151.188 204.186 147.46 207.224 145.191C210.263 142.922 236.224 127.691 236.224 127.691C238.816 126.047 240.599 126.16 243.724 127.691L272.724 145.191C276.63 147.598 277.315 149.628 274.724 152.191C265.391 158.358 245.724 169.691 243.724 170.691C241.724 171.692 238.753 171.46 237.724 170.691Z" stroke="#EEEEEE" stroke-opacity="0.15" stroke-width="0.5"/>
<path d="M572.724 174.691C563.391 168.691 543.646 157.195 542.224 156.191C540.803 155.188 539.186 151.46 542.224 149.191C545.263 146.922 571.224 131.691 571.224 131.691C573.816 130.047 575.599 130.16 578.724 131.691L607.724 149.191C611.63 151.598 612.315 153.628 609.724 156.191C600.391 162.358 580.724 173.691 578.724 174.691C576.724 175.692 573.753 175.46 572.724 174.691Z" stroke="#EEEEEE" stroke-opacity="0.15" stroke-width="0.5"/>
<path d="M566.724 435.691C557.391 429.691 537.646 418.195 536.224 417.191C534.803 416.188 533.186 412.46 536.224 410.191C539.263 407.922 565.224 392.691 565.224 392.691C567.816 391.047 569.599 391.16 572.724 392.691L601.724 410.191C605.63 412.598 606.315 414.628 603.724 417.191C594.391 423.358 574.724 434.691 572.724 435.691C570.724 436.692 567.753 436.46 566.724 435.691Z" stroke="#EEEEEE" stroke-opacity="0.15" stroke-width="0.5"/>
<path d="M137 375C137 376.321 136.271 377.56 135.008 378.486C133.745 379.412 131.976 380 130 380C128.024 380 126.255 379.412 124.992 378.486C123.729 377.56 123 376.321 123 375C123 373.679 123.729 372.44 124.992 371.514C126.255 370.588 128.024 370 130 370C131.976 370 133.745 370.588 135.008 371.514C136.271 372.44 137 373.679 137 375Z" stroke="#AAAAAA"/>
<ellipse cx="130" cy="375" rx="2.5" ry="1.5" fill="#F1D136"/>
<path d="M668.868 257.022C668.879 257.303 668.736 257.605 668.413 257.861C668.09 258.116 667.614 258.299 667.059 258.318C666.504 258.337 666.015 258.188 665.674 257.955C665.332 257.723 665.167 257.432 665.156 257.15C665.146 256.869 665.288 256.567 665.611 256.311C665.934 256.056 666.41 255.873 666.965 255.854C667.52 255.834 668.009 255.984 668.351 256.216C668.692 256.449 668.857 256.74 668.868 257.022Z" stroke="#AAAAAA"/>
<path d="M353 416.5C353 419.468 350.165 422 346.5 422C342.835 422 340 419.468 340 416.5C340 413.532 342.835 411 346.5 411C350.165 411 353 413.532 353 416.5Z" stroke="#AAAAAA"/>
<path d="M198 188C198 190.656 195.209 193 191.5 193C187.791 193 185 190.656 185 188C185 185.344 187.791 183 191.5 183C195.209 183 198 185.344 198 188Z" stroke="#AAAAAA"/>
<path d="M672 257C672 259.12 669.86 261 667 261C664.14 261 662 259.12 662 257C662 254.88 664.14 253 667 253C669.86 253 672 254.88 672 257Z" stroke="#AAAAAA"/>
<path d="M349.014 416.524C349.046 417.41 348.09 418.369 346.581 418.424C345.072 418.479 344.049 417.591 344.017 416.705C343.985 415.819 344.941 414.86 346.45 414.805C347.959 414.75 348.982 415.638 349.014 416.524Z" stroke="#AAAAAA"/>
<path d="M194.014 188.022C194.029 188.401 193.828 188.8 193.39 189.133C192.954 189.464 192.317 189.698 191.58 189.722C190.843 189.747 190.188 189.557 189.727 189.255C189.265 188.952 189.032 188.567 189.017 188.188C189.002 187.809 189.204 187.41 189.641 187.077C190.077 186.745 190.715 186.512 191.452 186.488C192.189 186.463 192.843 186.653 193.304 186.955C193.767 187.258 193.999 187.643 194.014 188.022Z" stroke="#AAAAAA"/>
<ellipse cx="403" cy="219.5" rx="20.5" ry="13" fill="#F1D136"/>
<ellipse cx="184" cy="405.5" rx="8.5" ry="6" fill="#F1D136"/>
<ellipse cx="241" cy="149.5" rx="8.5" ry="6" fill="#F1D136"/>
<ellipse cx="576" cy="153.5" rx="8.5" ry="6" fill="#F1D136"/>
<ellipse cx="570" cy="414.5" rx="8.5" ry="6" fill="#F1D136"/>
<ellipse cx="611" cy="284.5" rx="13.5" ry="8" fill="#F1D136"/>
<path d="M623.75 263.5C623.75 265.338 622.489 267.134 620.164 268.512C617.855 269.88 614.617 270.75 611 270.75C607.383 270.75 604.145 269.88 601.836 268.512C599.511 267.134 598.25 265.338 598.25 263.5C598.25 261.662 599.511 259.866 601.836 258.488C604.145 257.12 607.383 256.25 611 256.25C614.617 256.25 617.855 257.12 620.164 258.488C622.489 259.866 623.75 261.662 623.75 263.5Z" stroke="#F1D136" stroke-width="1.5"/>
<path d="M623.75 241.5C623.75 243.338 622.489 245.134 620.164 246.512C617.855 247.88 614.617 248.75 611 248.75C607.383 248.75 604.145 247.88 601.836 246.512C599.511 245.134 598.25 243.338 598.25 241.5C598.25 239.662 599.511 237.866 601.836 236.488C604.145 235.12 607.383 234.25 611 234.25C614.617 234.25 617.855 235.12 620.164 236.488C622.489 237.866 623.75 239.662 623.75 241.5Z" stroke="#F1D136" stroke-width="1.5"/>
<ellipse cx="182" cy="286.5" rx="13.5" ry="8" fill="#F1D136"/>
<path d="M194.75 266.5C194.75 268.338 193.489 270.134 191.164 271.512C188.855 272.88 185.617 273.75 182 273.75C178.383 273.75 175.145 272.88 172.836 271.512C170.511 270.134 169.25 268.338 169.25 266.5C169.25 264.662 170.511 262.866 172.836 261.488C175.145 260.12 178.383 259.25 182 259.25C185.617 259.25 188.855 260.12 191.164 261.488C193.489 262.866 194.75 264.662 194.75 266.5Z" stroke="#F1D136" stroke-width="1.5"/>
<path d="M194.75 245.5C194.75 247.338 193.489 249.134 191.164 250.512C188.855 251.88 185.617 252.75 182 252.75C178.383 252.75 175.145 251.88 172.836 250.512C170.511 249.134 169.25 247.338 169.25 245.5C169.25 243.662 170.511 241.866 172.836 240.488C175.145 239.12 178.383 238.25 182 238.25C185.617 238.25 188.855 239.12 191.164 240.488C193.489 241.866 194.75 243.662 194.75 245.5Z" stroke="#F1D136" stroke-width="1.5"/>
<path d="M665 288C665 296.733 659.171 304.722 649.571 310.554C639.979 316.38 626.697 320 612 320C597.303 320 584.021 316.38 574.429 310.554C564.829 304.722 559 296.733 559 288C559 279.267 564.829 271.278 574.429 265.446C584.021 259.62 597.303 256 612 256C626.697 256 639.979 259.62 649.571 265.446C659.171 271.278 665 279.267 665 288Z" stroke="#AAAAAA"/>
<path d="M236 292C236 300.449 230.18 308.189 220.577 313.843C210.984 319.491 197.7 323 183 323C168.3 323 155.016 319.491 145.423 313.843C135.82 308.189 130 300.449 130 292C130 283.551 135.82 275.811 145.423 270.157C155.016 264.509 168.3 261 183 261C197.7 261 210.984 264.509 220.577 270.157C230.18 275.811 236 283.551 236 292Z" stroke="#AAAAAA"/>
<path d="M324.5 76.5L381.806 215.605L382.305 216.168V218.984L383.301 222.363L385.295 225.742L387.288 227.431L388.783 228.558L392.769 230.81L396.756 231.937L400.742 232.5H402.736H405.227L408.715 231.937L410.709 231.374L412.702 230.81L414.695 229.684L416.689 228.558L418.184 227.431L420.177 225.742L421.672 223.489L423.167 220.11V215.605L421.173 210.536L472.5 76.5H324.5Z" fill="url(#paint6_linear_445_4893)"/>
<rect x="168.5" y="241.5" width="27" height="44" fill="url(#paint7_linear_445_4893)"/>
<rect x="597.5" y="241.5" width="27" height="44" fill="url(#paint8_linear_445_4893)"/>
<circle cx="374.5" cy="145.5" r="5.5" fill="#F1D136"/>
<circle cx="428.5" cy="153.5" r="2.5" fill="#F1D136"/>
<circle cx="397.5" cy="92.5" r="4.5" fill="#F1D136"/>
<circle cx="417.5" cy="115.5" r="1.5" fill="#F1D136"/>
<circle cx="373" cy="60" r="5" fill="#F1D136"/>
<circle cx="394.5" cy="2.5" r="2.5" fill="#F1D136"/>
<defs>
<linearGradient id="paint0_linear_445_4893" x1="352.5" y1="285" x2="450.5" y2="284" gradientUnits="userSpaceOnUse">
<stop offset="0.207701" stop-color="#2D2C2C"/>
<stop offset="1" stop-color="#0E0E0E" stop-opacity="0.17"/>
</linearGradient>
<linearGradient id="paint1_linear_445_4893" x1="352.5" y1="257.708" x2="450.497" y2="256.567" gradientUnits="userSpaceOnUse">
<stop offset="0.207701" stop-color="#2D2C2C"/>
<stop offset="1" stop-color="#0E0E0E" stop-opacity="0"/>
</linearGradient>
<linearGradient id="paint2_linear_445_4893" x1="183" y1="369.5" x2="183" y2="405.5" gradientUnits="userSpaceOnUse">
<stop offset="0.0968749" stop-color="#F1D136" stop-opacity="0"/>
<stop offset="0.341667" stop-color="#F1D136" stop-opacity="0.06"/>
<stop offset="0.570833" stop-color="#F1D136" stop-opacity="0.18"/>
<stop offset="1" stop-color="#F1D136"/>
</linearGradient>
<linearGradient id="paint3_linear_445_4893" x1="240.5" y1="116.5" x2="240.5" y2="150.5" gradientUnits="userSpaceOnUse">
<stop offset="0.0968749" stop-color="#F1D136" stop-opacity="0"/>
<stop offset="0.341667" stop-color="#F1D136" stop-opacity="0.06"/>
<stop offset="0.570833" stop-color="#F1D136" stop-opacity="0.18"/>
<stop offset="1" stop-color="#F1D136"/>
</linearGradient>
<linearGradient id="paint4_linear_445_4893" x1="575" y1="118.5" x2="575" y2="153.5" gradientUnits="userSpaceOnUse">
<stop offset="0.0968749" stop-color="#F1D136" stop-opacity="0"/>
<stop offset="0.341667" stop-color="#F1D136" stop-opacity="0.06"/>
<stop offset="0.570833" stop-color="#F1D136" stop-opacity="0.18"/>
<stop offset="1" stop-color="#F1D136"/>
</linearGradient>
<linearGradient id="paint5_linear_445_4893" x1="570" y1="382.5" x2="570" y2="415.5" gradientUnits="userSpaceOnUse">
<stop offset="0.0968749" stop-color="#F1D136" stop-opacity="0"/>
<stop offset="0.341667" stop-color="#F1D136" stop-opacity="0.06"/>
<stop offset="0.570833" stop-color="#F1D136" stop-opacity="0.18"/>
<stop offset="1" stop-color="#F1D136"/>
</linearGradient>
<linearGradient id="paint6_linear_445_4893" x1="398.5" y1="76.5" x2="398.5" y2="232.5" gradientUnits="userSpaceOnUse">
<stop stop-color="#F1D136" stop-opacity="0"/>
<stop offset="0.169792" stop-color="#F1D136" stop-opacity="0.02"/>
<stop offset="0.315625" stop-color="#F1D136" stop-opacity="0.06"/>
<stop offset="0.482292" stop-color="#F1D136" stop-opacity="0.09"/>
<stop offset="1" stop-color="#F1D136" stop-opacity="0.82"/>
</linearGradient>
<linearGradient id="paint7_linear_445_4893" x1="182" y1="241.5" x2="182" y2="285.5" gradientUnits="userSpaceOnUse">
<stop offset="0.22608" stop-color="#F1D136" stop-opacity="0"/>
<stop offset="1" stop-color="#F1D136" stop-opacity="0.43"/>
</linearGradient>
<linearGradient id="paint8_linear_445_4893" x1="611" y1="241.5" x2="611" y2="285.5" gradientUnits="userSpaceOnUse">
<stop offset="0.22608" stop-color="#F1D136" stop-opacity="0"/>
<stop offset="1" stop-color="#F1D136" stop-opacity="0.43"/>
</linearGradient>
</defs>
</svg>
