<svg width="23" height="20" viewBox="0 0 23 20" fill="none" xmlns="http://www.w3.org/2000/svg">
<path d="M0.816326 3.67347H22.0408C22.4917 3.67347 22.8571 3.30801 22.8571 2.85714V0.816327C22.8571 0.365459 22.4917 0 22.0408 0H0.816326C0.365459 0 0 0.365459 0 0.816327V2.85714C0 3.30801 0.365459 3.67347 0.816326 3.67347ZM0.816326 11.8367H22.0408C22.4917 11.8367 22.8571 11.4713 22.8571 11.0204V8.97959C22.8571 8.52872 22.4917 8.16327 22.0408 8.16327H0.816326C0.365459 8.16327 0 8.52872 0 8.97959V11.0204C0 11.4713 0.365459 11.8367 0.816326 11.8367ZM0.816326 20H22.0408C22.4917 20 22.8571 19.6345 22.8571 19.1837V17.1429C22.8571 16.692 22.4917 16.3265 22.0408 16.3265H0.816326C0.365459 16.3265 0 16.692 0 17.1429V19.1837C0 19.6345 0.365459 20 0.816326 20Z" fill="white"/>
</svg>
