<svg width="40" height="40" viewBox="0 0 40 40" fill="none" xmlns="http://www.w3.org/2000/svg">
<path d="M31.1146 5.15485C30.2377 5.15974 29.3873 5.45896 28.6969 6.00547C28.0065 6.55199 27.5153 7.31484 27.3005 8.17418H21.2113C20.949 8.17418 20.6974 8.27952 20.5119 8.46701C20.3264 8.65451 20.2222 8.90881 20.2222 9.17396C20.2222 9.43912 20.3264 9.69342 20.5119 9.88092C20.6974 10.0684 20.949 10.1737 21.2113 10.1737H27.3005C27.489 10.8961 27.8739 11.5507 28.4116 12.0633C28.9493 12.5759 29.6183 12.926 30.3428 13.0739C31.0673 13.2218 31.8183 13.1617 32.5107 12.9003C33.2031 12.6389 33.8093 12.1866 34.2604 11.5948C34.7115 11.0031 34.9896 10.2954 35.0632 9.55199C35.1368 8.80862 35.0028 8.05928 34.6766 7.3889C34.3504 6.71853 33.8449 6.15391 33.2174 5.75906C32.59 5.3642 31.8656 5.15489 31.1265 5.15485H31.1146ZM31.1146 11.1975C30.7177 11.2023 30.3283 11.0877 29.996 10.8682C29.6636 10.6488 29.4033 10.3344 29.2482 9.96512C29.093 9.5958 29.0499 9.1882 29.1245 8.7941C29.199 8.4 29.3878 8.0372 29.6668 7.7518C29.9458 7.46639 30.3025 7.27127 30.6915 7.19123C31.0805 7.11118 31.4842 7.14983 31.8514 7.30226C32.2187 7.45468 32.5327 7.71401 32.7538 8.04728C32.9749 8.38055 33.0929 8.77273 33.0929 9.17396C33.0961 9.43856 33.0472 9.70116 32.9492 9.94653C32.8512 10.1919 32.706 10.4152 32.522 10.6034C32.3379 10.7916 32.1188 10.9411 31.8772 11.0431C31.6356 11.145 31.3764 11.1975 31.1146 11.1975V11.1975Z" fill="#DE9D00"/>
<path d="M28.4438 18.7639C27.49 18.7653 26.5688 19.1149 25.8498 19.7483C25.1308 20.3817 24.6623 21.2563 24.5307 22.2111H22.1568L17.9074 13.0132C17.8279 12.8404 17.701 12.6943 17.5418 12.5922C17.3826 12.4901 17.1978 12.4364 17.0093 12.4373H13.3059C13.1914 11.4663 12.7307 10.5708 12.0099 9.91852C11.2892 9.26623 10.3579 8.90192 9.39044 8.89382C8.42302 8.88571 7.48587 9.23437 6.75451 9.87448C6.02315 10.5146 5.54776 11.4022 5.41738 12.3712C5.28701 13.3401 5.5106 14.3239 6.04626 15.1381C6.58193 15.9524 7.39293 16.5414 8.32735 16.7947C9.26177 17.048 10.2555 16.9483 11.1224 16.5143C11.9894 16.0803 12.67 15.3417 13.0369 14.4368H16.3604L20.6137 23.6348C20.6929 23.807 20.8192 23.9527 20.9776 24.0547C21.1361 24.1567 21.32 24.2109 21.5079 24.2107H24.7523C25.013 24.8892 25.4519 25.4829 26.0218 25.9278C26.5916 26.3728 27.2708 26.6521 27.9862 26.7357C28.7015 26.8193 29.4258 26.704 30.0811 26.4022C30.7364 26.1004 31.2977 25.6235 31.7047 25.0231C32.1116 24.4226 32.3488 23.7213 32.3905 22.9947C32.4322 22.2681 32.2769 21.5437 31.9414 20.8997C31.6059 20.2557 31.1028 19.7165 30.4865 19.3401C29.8702 18.9637 29.1639 18.7645 28.4438 18.7639ZM9.38098 14.9447C8.98404 14.9495 8.59466 14.8349 8.26232 14.6154C7.92998 14.396 7.66969 14.0816 7.51451 13.7123C7.35933 13.343 7.31628 12.9354 7.39083 12.5413C7.46538 12.1472 7.65416 11.7844 7.93318 11.499C8.2122 11.2136 8.56886 11.0185 8.95785 10.9384C9.34684 10.8584 9.75059 10.897 10.1178 11.0495C10.485 11.2019 10.7991 11.4612 11.0202 11.7945C11.2412 12.1278 11.3592 12.5199 11.3593 12.9212C11.3624 13.1858 11.3136 13.4484 11.2156 13.6937C11.1175 13.9391 10.9723 14.1624 10.7883 14.3506C10.6043 14.5388 10.3851 14.6883 10.1436 14.7903C9.90199 14.8922 9.64278 14.9448 9.38098 14.9447V14.9447ZM28.4438 24.7946C28.0478 24.7985 27.6595 24.6835 27.3284 24.464C26.9972 24.2445 26.738 23.9305 26.5838 23.5618C26.4295 23.1932 26.3871 22.7865 26.4619 22.3934C26.5368 22.0004 26.7255 21.6386 27.0041 21.3542C27.2828 21.0698 27.6387 20.8754 28.0269 20.7959C28.415 20.7163 28.8177 20.7551 29.184 20.9074C29.5502 21.0596 29.8635 21.3184 30.0839 21.651C30.3043 21.9835 30.4221 22.3747 30.4221 22.775C30.4247 23.0393 30.3754 23.3014 30.2772 23.5464C30.179 23.7913 30.0336 24.0141 29.8497 24.2019C29.6657 24.3897 29.4468 24.5387 29.2054 24.6405C28.9641 24.7422 28.7052 24.7946 28.4438 24.7946V24.7946Z" fill="#DE9D00"/>
<path d="M23.6564 30.0854H17.1241C16.8832 29.1364 16.308 28.3089 15.5064 27.7581C14.7048 27.2073 13.7318 26.9711 12.7702 27.0938C11.8085 27.2165 10.9241 27.6896 10.2831 28.4245C9.64204 29.1594 9.28833 30.1055 9.28833 31.0852C9.28833 32.0649 9.64204 33.011 10.2831 33.7459C10.9241 34.4808 11.8085 34.9539 12.7702 35.0766C13.7318 35.1993 14.7048 34.9631 15.5064 34.4123C16.308 33.8615 16.8832 33.034 17.1241 32.085H23.6564C23.9188 32.085 24.1703 31.9796 24.3558 31.7922C24.5413 31.6047 24.6456 31.3504 24.6456 31.0852C24.6456 30.82 24.5413 30.5657 24.3558 30.3782C24.1703 30.1908 23.9188 30.0854 23.6564 30.0854ZM13.302 33.1088C12.9051 33.1135 12.5157 32.9989 12.1834 32.7795C11.851 32.56 11.5908 32.2457 11.4356 31.8764C11.2804 31.507 11.2373 31.0994 11.3119 30.7053C11.3864 30.3112 11.5752 29.9484 11.8542 29.663C12.1333 29.3776 12.4899 29.1825 12.8789 29.1025C13.2679 29.0224 13.6717 29.0611 14.0389 29.2135C14.4061 29.3659 14.7202 29.6252 14.9412 29.9585C15.1623 30.2918 15.2803 30.684 15.2803 31.0852C15.2835 31.3498 15.2346 31.6124 15.1366 31.8578C15.0386 32.1031 14.8934 32.3264 14.7094 32.5146C14.5254 32.7029 14.3062 32.8523 14.0646 32.9543C13.8231 33.0563 13.5638 33.1088 13.302 33.1088V33.1088Z" fill="#DE9D00"/>
</svg>
