<svg width="153" height="45" viewBox="0 0 153 45" fill="none" xmlns="http://www.w3.org/2000/svg">
<path fill-rule="evenodd" clip-rule="evenodd" d="M50.8162 5.87697H60.1381V39.5305H50.8162V5.87697ZM65.0308 39.5305V5.87697H90.6697V12.4019H74.3536V19.3472H89.3624V25.873H74.3536V33.0047H90.6697V39.5305H65.0308ZM95.889 39.5305V5.87697H121.525V12.4019H105.21V19.3472H120.22V25.873H105.21V33.0047H121.525V39.5305H95.889ZM126.746 39.5305V5.87697H152.383V12.4019H136.068V19.3472H151.076V25.873H136.068V33.0047H152.383V39.5305H126.746ZM25.275 2.85762C26.6589 4.61205 28.1144 6.44957 29.6114 8.11359L33.3093 11.976C36.5965 15.2517 40.181 18.2149 44.0167 20.8271L44.1405 20.8467C44.3829 21.0066 44.5865 21.2185 44.7366 21.4671C44.8866 21.7156 44.9793 21.9945 45.0079 22.2835C44.9884 23.5117 43.5736 23.7585 42.83 24.4199C35.4253 29.7891 28.7961 36.4387 23.5703 43.8441L23.1492 44.2677C22.7248 44.5267 22.1775 44.4232 21.7328 44.2677C21.165 44.0812 21.104 43.4629 20.7415 43.0793C19.5857 41.2833 18.1082 39.6006 16.849 37.9284C16.1054 37.1726 15.4855 36.3792 14.7215 35.5737C10.425 30.8618 5.59179 26.7323 0.542694 23.2527C0.181055 22.8903 -0.118681 22.4146 0.0466626 21.8371C0.202232 21.1969 0.945057 20.8149 1.44109 20.4232C7.75021 16.0957 13.534 10.448 18.4169 4.39539L21.4648 0.429591C21.8663 0.12171 22.4047 -0.136488 22.8991 0.0801697C23.1264 0.141257 23.3854 0.347323 23.5914 0.470313L25.275 2.85762Z" fill="#EEEEEE" fill-opacity="0.15"/>
<path d="M21.2065 6.66228L21.2151 6.65616L21.2235 6.64968C21.8114 6.19272 22.475 6.14014 23.1729 6.33727C23.8866 6.53887 24.6027 6.99653 25.1985 7.50385L25.2086 7.51244L25.2191 7.52048C26.5197 8.51411 27.8668 9.63615 29.0475 10.7759L29.0925 10.8193L29.1467 10.8503L29.3133 10.9455C32.589 13.9925 35.6253 17.3671 38.12 20.9296C38.514 21.5342 38.7569 22.0722 38.6053 22.673C38.2077 23.6511 37.6051 24.5464 36.9032 25.435C36.5491 25.8832 36.1737 26.325 35.7891 26.774C35.7457 26.8247 35.7021 26.8755 35.6585 26.9265C35.3209 27.3203 34.9777 27.7208 34.6448 28.129C31.4145 31.607 28.0276 34.9473 24.2436 37.6108L24.2428 37.6113C23.8776 37.8694 23.4739 38.0991 23.0735 38.2179C22.6819 38.3341 22.3247 38.336 22.0052 38.19C19.7753 37.0205 17.8347 35.2489 15.841 33.4288C15.3843 33.0119 14.9249 32.5924 14.4585 32.1771C11.6172 29.5394 8.7757 26.4808 6.63832 23.2928L6.63845 23.2927L6.63122 23.2825C6.4064 22.9646 6.3157 22.549 6.31829 22.0275C6.55788 21.1343 7.14755 20.3712 7.81535 19.507C7.86964 19.4367 7.92444 19.3658 7.97961 19.2941C10.5154 16.0644 13.6299 12.9896 16.7886 10.1702L16.8012 10.1589L16.8131 10.1467C16.8303 10.1291 16.8508 10.1074 16.8691 10.088C16.874 10.0828 16.8787 10.0778 16.8831 10.0731C16.9067 10.0482 16.9298 10.024 16.9529 10.001C16.9762 9.97773 16.9968 9.95828 17.0146 9.94292C17.0333 9.92668 17.0423 9.92069 17.0423 9.9207L17.0732 9.90117L17.1009 9.87736C18.4196 8.74348 19.7896 7.67066 21.2065 6.66228Z" stroke="#EEEEEE" stroke-opacity="0.15"/>
<path fill-rule="evenodd" clip-rule="evenodd" d="M22.4243 10.1376L22.0121 11.4588L19.9466 17.3769C20.463 17.4274 21.1032 17.3769 21.609 17.4274V17.4795L21.3092 24.1707L21.3614 24.244C22.0227 24.3043 22.847 24.336 23.519 24.222V24.1202L23.2502 17.6245L23.2917 17.4079L25.1089 17.3769C24.1992 14.9755 23.3214 12.5622 22.4756 10.1376H22.4243Z" fill="#EEEEEE" fill-opacity="0.15"/>
<path fill-rule="evenodd" clip-rule="evenodd" d="M15.3927 19.4099C14.2345 19.9882 12.5313 20.8679 12.7179 22.4553C12.9655 23.3236 13.9054 23.8807 14.649 24.2432C18.7582 26.0505 24.2121 26.1124 28.5477 24.7587C29.622 24.3466 31.058 23.7488 31.2535 22.4358C31.2429 21.3501 30.0969 20.6699 29.2701 20.257V20.2057C29.5585 20.0925 29.8908 19.9882 30.1897 19.9564V19.9255C28.7334 19.6673 27.3284 19.2853 25.925 18.9139C26.1938 19.5329 26.3893 20.1837 26.6173 20.8255C27.0446 20.6871 27.4831 20.5863 27.9278 20.5241C28.6723 20.8141 29.7352 21.2271 29.8387 22.1556C29.9217 23.0238 28.9712 23.4458 28.3726 23.7976C25.1919 24.9542 21.6081 25.0691 18.2931 24.1902C17.3752 23.9019 16.0524 23.5288 15.9392 22.3641C16.59 20.8255 18.2736 20.5038 19.6769 20.1332C18.9545 19.6673 18.2214 19.2543 17.5193 18.7379C16.7659 18.7811 16.0744 19.111 15.3927 19.4099ZM21.2677 26.0815C21.1447 28.4566 21.1137 30.6565 20.9378 33.043C21.8777 33.1261 22.9407 33.2084 23.9425 33.0618L23.6428 26.4219L23.5906 26.1019C22.8274 26.1336 22.105 26.1638 21.2677 26.0815Z" fill="#EEEEEE" fill-opacity="0.15"/>
<path fill-rule="evenodd" clip-rule="evenodd" d="M29.9055 40.9478V40.5421H30.158C30.2948 40.5421 30.4805 40.5552 30.4805 40.727C30.4805 40.9136 30.3852 40.9478 30.2247 40.9478H29.9055ZM29.9055 41.232H30.0757L30.4626 41.9382H30.8894L30.4593 41.2035C30.6833 41.1848 30.8641 41.0732 30.8641 40.7645C30.8641 40.3792 30.6084 40.2571 30.1742 40.2571H29.5463V41.9382H29.9046V41.232H29.9055ZM31.7324 41.0985C31.7324 40.1105 30.992 39.5362 30.1653 39.5362C29.3353 39.5362 28.5949 40.1105 28.5949 41.0985C28.5949 42.0864 29.3353 42.6623 30.1653 42.6623C30.992 42.6623 31.7324 42.0864 31.7324 41.0985ZM31.282 41.0985C31.282 41.8177 30.7688 42.3031 30.1653 42.3031V42.2982C29.5463 42.3031 29.0462 41.8177 29.0462 41.0985C29.0462 40.3792 29.5463 39.9003 30.1653 39.9003C30.7688 39.9011 31.282 40.3801 31.282 41.0985Z" fill="#EEEEEE" fill-opacity="0.15"/>
</svg>
