<svg width="124" height="48" viewBox="0 0 124 48" fill="none" xmlns="http://www.w3.org/2000/svg">
<g clip-path="url(#clip0_389_4356)">
<path d="M29.1437 33.4486C22.7184 37.6431 16.0464 37.4152 16.0464 37.4152C16.0464 37.4152 15.8623 36.5575 15.9358 35.0783C16.0093 33.5991 16.8099 34.0199 17.3918 32.8518C17.684 32.3057 17.9249 31.7334 18.1113 31.1422C18.124 31.1023 17.7254 24.0251 17.6249 21.0208C17.57 19.4056 17.2676 16.7039 16.9138 14.077C16.706 12.5213 16.2381 11.2878 16.0186 9.81287C15.7044 7.67823 15.3429 5.27411 15.3429 5.27411C15.0811 5.9542 14.7053 8.49434 14.3295 11.3626C14.1504 12.739 13.968 14.1901 13.8008 15.5469C13.4427 18.4211 12.55 26.1164 12.4149 26.5329C12.2113 27.1679 12.1894 26.3629 12.1894 26.3629C12.1894 26.3629 12.7172 18.2928 12.8768 14.7554C12.9562 13.0229 13.0846 11.1195 13.2991 9.29685C13.444 7.99611 13.6563 6.70388 13.9351 5.42543C13.9351 5.42543 14.8548 2.63535 15.1487 2.5784C15.4426 2.52144 16.4999 4.33813 16.8563 5.95335C17.668 9.60119 18.146 10.0671 18.7625 13.8968C19.3537 17.5362 19.8866 20.577 19.9601 21.0786C20.221 22.8876 20.0901 28.5188 19.6383 30.7631C19.5302 31.3769 19.4989 31.6004 19.1012 32.0068C18.1722 32.9547 17.5075 34.0836 17.5075 34.8249C17.5075 35.5662 17.3867 35.5501 17.5599 35.976C17.5599 35.976 18.7887 37.8267 25.844 33.5957C25.844 33.5957 28.05 32.4336 28.05 29.8662V3.90287C28.05 3.90287 21.0529 1.52255 15.6638 1.52255C10.2748 1.52255 3.5243 3.90287 3.5243 3.90287V29.748C3.5243 31.3369 3.75402 34.32 6.01065 35.3392C6.01065 35.3392 0 33.2684 0 29.7149V1.70023C0 1.70023 9.17686 0 15.6672 0C22.1576 0 31.4957 1.70023 31.4957 1.70023V29.7489C31.4957 32.1624 29.1437 33.4486 29.1437 33.4486Z" fill="#EEEEEE" fill-opacity="0.15"/>
<path d="M116.34 11.752C115.698 12.109 114.836 12.2927 113.754 12.2927C112.672 12.2927 111.811 11.9586 111.207 11.2955C110.602 10.6324 110.298 9.69895 110.298 8.50709C110.298 7.31523 110.602 6.3512 111.206 5.64136C111.797 4.95617 112.575 4.61527 113.546 4.61527C113.924 4.60851 114.3 4.65749 114.664 4.76064V1.74103H116.34V11.752ZM114.664 11.043V5.66686C114.422 5.60006 114.172 5.56773 113.921 5.5708C112.617 5.5708 111.965 6.51726 111.966 8.41018C111.966 10.2759 112.576 11.2085 113.797 11.2079C114.203 11.2079 114.49 11.1543 114.664 11.043Z" fill="#EEEEEE" fill-opacity="0.15"/>
<path d="M123.996 8.37023L119.453 9.03246C119.59 10.4182 120.265 11.1107 121.48 11.1101C122.194 11.1101 122.819 10.9738 123.353 10.7012L123.75 11.763C123.118 12.1161 122.301 12.2927 121.301 12.2927C120.238 12.2927 119.396 11.9526 118.781 11.281C118.165 10.6094 117.859 9.64625 117.859 8.40168C117.859 7.19055 118.141 6.24664 118.704 5.56995C119.267 4.89326 120.04 4.55321 121.023 4.54981C122.016 4.54981 122.766 4.87371 123.282 5.52489C123.798 6.17608 124.034 7.12396 123.996 8.37023ZM122.427 7.70629C122.427 6.2951 121.94 5.58922 120.966 5.58865C120.451 5.58865 120.056 5.79778 119.784 6.21179C119.477 6.66518 119.333 7.32033 119.353 8.17725L122.427 7.70629Z" fill="#EEEEEE" fill-opacity="0.15"/>
<path d="M39.5781 32.0723H36.9456V15.6906H39.5781V32.0723Z" fill="#EEEEEE" fill-opacity="0.15"/>
<path d="M51.7227 26.2303C51.7227 28.041 51.3274 29.4777 50.5403 30.5514C49.6772 31.707 48.4619 32.2848 46.8944 32.2848C45.3269 32.2848 44.1122 31.707 43.2502 30.5514C42.4563 29.4777 42.0627 28.041 42.0627 26.2303C42.0627 24.4195 42.4563 22.9607 43.2502 21.8879C44.1099 20.7278 45.3233 20.1477 46.8902 20.1477C48.4723 20.1477 49.6876 20.7269 50.5361 21.8853C51.3272 22.9599 51.7227 24.4082 51.7227 26.2303ZM49.1097 26.2099C49.1097 23.2843 48.3698 21.8216 46.8902 21.8216C45.4105 21.8216 44.6704 23.2843 44.6699 26.2099C44.6699 29.0617 45.41 30.4874 46.8902 30.4868C48.3704 30.4862 49.1102 29.0606 49.1097 26.2099Z" fill="#EEEEEE" fill-opacity="0.15"/>
<path d="M60.7475 28.7007C60.7475 29.6885 60.3658 30.529 59.6023 31.2221C58.8388 31.9153 57.8395 32.2627 56.6042 32.2644C55.2805 32.2644 54.2088 31.983 53.389 31.4202L54.0781 29.7276C54.6412 30.1754 55.3686 30.3995 56.2604 30.4001C56.7917 30.4001 57.2232 30.2471 57.5534 29.9342C57.7158 29.7844 57.8443 29.6012 57.9301 29.397C58.016 29.1929 58.0571 28.9725 58.0509 28.7509C58.0509 28.2595 57.9211 27.8718 57.6616 27.5879C57.402 27.304 56.9637 27.0489 56.3466 26.8228C54.5798 26.1427 53.6964 25.0495 53.6964 23.5431C53.6866 23.0913 53.7728 22.6427 53.9492 22.2272C54.1255 21.8117 54.3881 21.4389 54.7191 21.1338C55.3998 20.4764 56.2869 20.1477 57.3803 20.1477C58.5627 20.1477 59.5643 20.4257 60.3996 20.9749L59.7543 22.5153C59.2312 22.0834 58.5728 21.8524 57.8963 21.8632C57.38 21.8632 56.9752 22.0112 56.6819 22.307C56.5387 22.451 56.4263 22.623 56.3515 22.8123C56.2767 23.0016 56.2412 23.2043 56.2469 23.4079C56.2469 24.1736 56.8218 24.7885 57.9715 25.2526C59.8233 26.0041 60.7487 27.1535 60.7475 28.7007Z" fill="#EEEEEE" fill-opacity="0.15"/>
<path d="M80.1654 32.0723H77.0946L75.8523 27.8982H70.6482L69.3602 32.0723H66.6847L72.0324 15.83H74.8439L80.1654 32.0723ZM75.4291 26.1495L73.7662 20.4308C73.5298 19.6257 73.3904 18.9737 73.344 18.4679H73.2984C73.2207 18.8929 73.0712 19.5467 72.8524 20.4308L71.1169 26.1495H75.4291Z" fill="#EEEEEE" fill-opacity="0.15"/>
<path d="M90.9934 32.0723H88.3618V23.7777C88.3618 22.4742 87.6642 21.8224 86.269 21.8224C85.6502 21.8146 85.0357 21.9257 84.4583 22.1497V32.0723H81.825V20.9978C83.02 20.4359 84.5351 20.1477 86.3762 20.1477C88.0011 20.1477 89.2021 20.5099 89.9791 21.2342C90.6547 21.8417 90.9925 22.674 90.9925 23.7309L90.9934 32.0723Z" fill="#EEEEEE" fill-opacity="0.15"/>
<path d="M102.86 31.4372C101.854 32.004 100.503 32.2873 98.8063 32.2873C97.0924 32.2873 95.7605 31.7665 94.8107 30.7248C93.8609 29.6832 93.3862 28.2295 93.3868 26.3637C93.3868 24.4816 93.8614 22.9823 94.8107 21.8658C95.7329 20.798 96.9584 20.2591 98.4819 20.2591C99.0724 20.2484 99.6613 20.3225 100.231 20.4792V15.7441H102.863L102.86 31.4372ZM100.228 30.3321V21.9108C99.8496 21.807 99.4581 21.7572 99.0655 21.7629C97.0206 21.7629 95.999 23.2464 96.0007 26.2133C96.0007 29.136 96.9578 30.5967 98.8721 30.5956C99.4996 30.5922 99.9515 30.5063 100.228 30.3321Z" fill="#EEEEEE" fill-opacity="0.15"/>
<path d="M114.84 26.1436L107.719 27.1875C107.935 29.357 108.992 30.4429 110.889 30.4451C112.011 30.4451 112.989 30.2278 113.823 29.7931L114.45 31.461C113.455 32.0096 112.175 32.2842 110.61 32.2848C108.942 32.2848 107.626 31.7569 106.662 30.701C105.698 29.6452 105.216 28.1393 105.216 26.1835C105.216 24.2878 105.659 22.8086 106.545 21.7459C107.431 20.6833 108.641 20.1505 110.176 20.1477C111.728 20.1477 112.91 20.6578 113.714 21.6779C114.518 22.698 114.897 24.19 114.84 26.1436ZM112.374 25.1039C112.374 22.8896 111.612 21.7813 110.089 21.7791C109.283 21.7791 108.664 22.1055 108.231 22.7584C107.756 23.4668 107.533 24.4946 107.562 25.8418L112.374 25.1039Z" fill="#EEEEEE" fill-opacity="0.15"/>
<path d="M123.886 28.7007C123.886 29.6885 123.504 30.529 122.74 31.2221C121.976 31.9153 120.976 32.2627 119.74 32.2644C118.418 32.2644 117.346 31.983 116.526 31.4202L117.217 29.7276C117.776 30.1754 118.503 30.3995 119.397 30.4001C119.928 30.4001 120.361 30.2471 120.69 29.9342C120.853 29.7844 120.981 29.6012 121.067 29.397C121.153 29.1929 121.194 28.9725 121.188 28.7509C121.188 28.2595 121.06 27.8718 120.801 27.5879C120.542 27.304 120.102 27.0506 119.485 26.8228C117.717 26.1427 116.833 25.0495 116.831 23.5431C116.823 23.0912 116.91 22.6427 117.086 22.2273C117.263 21.8119 117.526 21.4392 117.857 21.1338C118.539 20.4764 119.425 20.1477 120.517 20.1477C121.694 20.1477 122.701 20.4257 123.534 20.9749L122.889 22.5153C122.367 22.084 121.711 21.8529 121.036 21.8632C120.521 21.8632 120.114 22.0112 119.821 22.307C119.677 22.4499 119.563 22.6211 119.487 22.81C119.41 22.9989 119.373 23.2015 119.378 23.4053C119.378 24.171 119.953 24.7859 121.103 25.2501C122.959 26.0033 123.887 27.1535 123.886 28.7007Z" fill="#EEEEEE" fill-opacity="0.15"/>
<path d="M50.8325 12.1787H49.1586V6.88593C49.1586 6.05508 48.7135 5.63966 47.8234 5.63966C47.428 5.63462 47.0353 5.7056 46.6664 5.84879V12.1804H44.9899V5.11259C45.7523 4.75384 46.7196 4.5739 47.8918 4.57277C48.9289 4.57277 49.6924 4.8074 50.1873 5.26561C50.6197 5.65411 50.8325 6.18628 50.8325 6.85957V12.1787Z" fill="#EEEEEE" fill-opacity="0.15"/>
<path d="M54.4497 2.5869C54.4504 2.69896 54.4266 2.80982 54.3801 2.91162C54.3335 3.01342 54.2653 3.10368 54.1803 3.17603C54.0016 3.33861 53.7674 3.42541 53.5266 3.41831C53.2847 3.42485 53.0493 3.33819 52.8687 3.17603C52.7839 3.10366 52.7161 3.01332 52.6701 2.91146C52.6241 2.80961 52.6011 2.69877 52.6027 2.5869C52.6017 2.47426 52.625 2.36275 52.6709 2.26002C52.7169 2.1573 52.7843 2.0658 52.8687 1.99182C53.0496 1.83212 53.2816 1.74344 53.5222 1.74203C53.7628 1.74063 53.9959 1.8266 54.1786 1.98417C54.2646 2.05877 54.3334 2.15134 54.3802 2.25543C54.427 2.35953 54.4507 2.47264 54.4497 2.5869ZM54.361 12.1787H52.6846V4.70963H54.361V12.1787Z" fill="#EEEEEE" fill-opacity="0.15"/>
<path d="M62.0025 4.70963L59.62 12.1787H58.0205L55.6008 4.70963H57.3913L58.6961 9.53063C58.7924 9.86317 58.8527 10.2052 58.876 10.5508H58.903C58.9486 10.2847 59.0137 9.94294 59.0947 9.53063L60.4333 4.70963H62.0025Z" fill="#EEEEEE" fill-opacity="0.15"/>
<path d="M69.0309 8.39148L64.4906 9.05712C64.6274 10.4394 65.303 11.1305 66.5175 11.1305C67.2345 11.1305 67.8561 10.9962 68.389 10.7225L68.7893 11.7885C68.1554 12.1388 67.339 12.3142 66.3401 12.3148C65.2743 12.3148 64.4346 11.9773 63.8209 11.3023C63.2072 10.6273 62.8978 9.6675 62.8927 8.42293C62.8927 7.21407 63.1765 6.27214 63.7372 5.59035C64.298 4.90856 65.0742 4.57021 66.0572 4.57021C67.0403 4.57021 67.7995 4.89496 68.3147 5.54529C68.8299 6.19563 69.0706 7.14606 69.0309 8.39148ZM67.4634 7.73604C67.4634 6.32202 66.9764 5.61529 66.0023 5.61585C65.4888 5.61585 65.0927 5.82243 64.82 6.23984C64.5185 6.69125 64.3749 7.34499 64.3935 8.207L67.4634 7.73604Z" fill="#EEEEEE" fill-opacity="0.15"/>
<path d="M74.1328 4.58212L73.8017 5.81818C73.5525 5.7364 73.2919 5.69507 73.0298 5.69576C72.7519 5.68568 72.4761 5.74805 72.2292 5.87684V12.1804H70.5536V5.11004C71.3722 4.71388 72.5653 4.53791 74.1328 4.58212Z" fill="#EEEEEE" fill-opacity="0.15"/>
<path d="M79.4813 10.0313C79.4839 10.3365 79.42 10.6386 79.2943 10.9163C79.1685 11.194 78.9839 11.4407 78.7533 11.6389C78.2652 12.081 77.6273 12.3023 76.8396 12.3029C75.995 12.3029 75.3093 12.1243 74.7865 11.7613L75.2274 10.6791C75.5846 10.969 76.0491 11.111 76.6175 11.111C76.9213 11.1256 77.2186 11.0194 77.4451 10.8152C77.5484 10.7189 77.63 10.6015 77.6843 10.4708C77.7386 10.3402 77.7645 10.1993 77.7602 10.0577C77.7602 9.74486 77.6757 9.49918 77.5144 9.31725C77.3531 9.13533 77.0702 8.97721 76.6766 8.82504C75.5505 8.38978 74.9875 7.6924 74.9875 6.7329C74.9818 6.44493 75.0372 6.15905 75.1499 5.89431C75.2626 5.62957 75.4301 5.39206 75.6412 5.1976C76.077 4.78019 76.642 4.57106 77.3413 4.57106C78.0895 4.57106 78.7339 4.74789 79.2643 5.09728L78.8471 6.08002C78.5137 5.80603 78.0951 5.65914 77.6647 5.66516C77.3345 5.66516 77.0735 5.76037 76.8869 5.95165C76.795 6.04206 76.7227 6.15053 76.6743 6.27031C76.6259 6.3901 76.6025 6.51862 76.6057 6.64789C76.6057 7.13813 76.9716 7.53145 77.7036 7.82785C78.8893 8.30845 79.4819 9.04295 79.4813 10.0313Z" fill="#EEEEEE" fill-opacity="0.15"/>
<path d="M82.7657 2.5869C82.767 2.69888 82.7436 2.80977 82.6974 2.91161C82.6511 3.01346 82.583 3.10375 82.498 3.17603C82.3155 3.3324 82.0836 3.41827 81.8439 3.41827C81.6042 3.41827 81.3723 3.3324 81.1898 3.17603C81.1045 3.10384 81.0359 3.01365 80.9891 2.91184C80.9422 2.81003 80.9182 2.6991 80.9187 2.5869C80.9187 2.47392 80.9429 2.36227 80.9897 2.25957C81.0365 2.15688 81.1048 2.06555 81.1898 1.99182C81.3668 1.8262 81.601 1.73654 81.8426 1.74188C82.0838 1.73548 82.3183 1.82216 82.498 1.98417C82.5836 2.05891 82.6519 2.15158 82.6982 2.2557C82.7444 2.35982 82.7675 2.47286 82.7657 2.5869ZM82.6813 12.1787H81.0015V4.70963H82.6813V12.1787Z" fill="#EEEEEE" fill-opacity="0.15"/>
<path d="M90.2975 11.7758C89.6562 12.1351 88.7939 12.3148 87.7106 12.3148C86.6183 12.3148 85.7701 11.9824 85.166 11.3176C84.5618 10.6528 84.2584 9.72332 84.2556 8.5292C84.2556 7.32884 84.559 6.37359 85.166 5.66346C85.7572 4.97912 86.5333 4.63482 87.5079 4.63482C87.8839 4.62823 88.2588 4.67663 88.621 4.77849V1.76484H90.2975V11.7758ZM88.621 11.0651V5.69067C88.3789 5.62406 88.1288 5.59173 87.8778 5.5946C86.5761 5.5946 85.9252 6.54106 85.9252 8.43398C85.9252 10.2986 86.5353 11.2311 87.7554 11.2317C88.1599 11.2317 88.4496 11.1773 88.621 11.0651Z" fill="#EEEEEE" fill-opacity="0.15"/>
<path d="M97.444 11.7758C96.774 12.1351 95.8796 12.3148 94.7609 12.3148C92.7424 12.3148 91.734 11.5584 91.7357 10.0458C91.7357 9.13901 92.1434 8.45892 92.9586 8.00553C93.6013 7.65443 94.5709 7.41045 95.8757 7.28633V6.88592C95.8757 6.06471 95.3847 5.65439 94.4028 5.65496C93.7576 5.66326 93.1225 5.81784 92.5448 6.10722L92.1597 5.13979C92.9535 4.75663 93.824 4.56205 94.7043 4.57106C96.5314 4.57106 97.4443 5.42968 97.4432 7.14691L97.444 11.7758ZM95.8757 11.1679V8.09054C94.9965 8.20275 94.3741 8.37192 94.0067 8.60061C93.5507 8.88738 93.3221 9.34956 93.3209 9.98714C93.3209 10.9104 93.8375 11.3717 94.8707 11.3711C95.2168 11.3833 95.561 11.3137 95.8757 11.1679Z" fill="#EEEEEE" fill-opacity="0.15"/>
<path d="M104.998 11.7758C104.358 12.1354 103.494 12.3148 102.413 12.3148C101.332 12.3148 100.471 11.9815 99.867 11.3176C99.2632 10.6536 98.96 9.72106 98.96 8.5292C98.96 7.33734 99.2623 6.37246 99.8687 5.66346C100.455 4.97912 101.237 4.63482 102.209 4.63482C102.585 4.62807 102.961 4.67646 103.324 4.77849V1.76484H104.998V11.7758ZM103.324 11.0651V5.69067C103.082 5.6244 102.832 5.59207 102.581 5.5946C101.276 5.5946 100.624 6.54106 100.626 8.43398C100.626 10.2986 101.237 11.2311 102.46 11.2317C102.86 11.2317 103.151 11.1773 103.324 11.0651Z" fill="#EEEEEE" fill-opacity="0.15"/>
<path d="M36.9245 1.78014H38.7099V9.81032C38.7099 10.6927 39.1825 11.1342 40.1279 11.1348C40.5471 11.1395 40.9634 11.0645 41.355 10.9138V1.78014H43.1404V11.6942C42.3296 12.075 41.3026 12.2688 40.0544 12.2688C38.9565 12.2688 38.1398 12.0232 37.6111 11.5318C37.1525 11.1195 36.9245 10.5533 36.9245 9.83837V1.78014Z" fill="#EEEEEE" fill-opacity="0.15"/>
<path d="M89.3811 47.5826C89.0247 47.8589 88.5095 48 87.8322 48C86.852 48 86.1076 47.5843 85.5992 46.7529C85.1747 46.0598 84.963 45.1867 84.9641 44.1337C84.9641 43.1135 85.1803 42.2388 85.6195 41.5272C86.1363 40.6867 86.8773 40.2668 87.8423 40.2674C88.4774 40.2674 88.9904 40.4071 89.3811 40.6865L89.0847 41.5136C88.7886 41.3431 88.4528 41.2551 88.1117 41.2586C87.4693 41.2586 87.0029 41.5986 86.7123 42.2787C86.4987 42.7667 86.3948 43.3839 86.3948 44.1303C86.3948 44.8435 86.5071 45.4471 86.7326 45.9504C87.0299 46.6152 87.4902 46.9481 88.1134 46.9493C88.4461 46.954 88.7733 46.8635 89.0568 46.6883L89.3811 47.5826Z" fill="#EEEEEE" fill-opacity="0.15"/>
<path d="M94.3758 45.1844C94.3758 45.9742 94.2068 46.6194 93.869 47.1108C93.4805 47.6849 92.9082 47.9717 92.1521 47.9711C91.3959 47.9705 90.8239 47.6838 90.4359 47.1108C90.0981 46.6194 89.9292 45.9742 89.9292 45.1844C89.9292 44.3947 90.0981 43.7392 90.4359 43.2428C90.8182 42.6721 91.3903 42.3861 92.1521 42.385C92.9138 42.3839 93.4862 42.6698 93.869 43.2428C94.2074 43.7358 94.3763 44.3831 94.3758 45.1844ZM93.1748 45.1674C93.1748 43.8288 92.8333 43.1586 92.1504 43.1569C91.4674 43.1552 91.1262 43.8254 91.1268 45.1674C91.1268 46.4777 91.4677 47.1329 92.1495 47.1329C92.8314 47.1329 93.1731 46.4777 93.1748 45.1674Z" fill="#EEEEEE" fill-opacity="0.15"/>
<path d="M96.7363 47.8716H95.5184V40.3056H96.738L96.7363 47.8716Z" fill="#EEEEEE" fill-opacity="0.15"/>
<path d="M102.317 45.1844C102.317 45.9742 102.148 46.6194 101.81 47.1108C101.419 47.6849 100.847 47.9717 100.094 47.9711C99.3415 47.9705 98.7689 47.6838 98.3764 47.1108C98.0386 46.6194 97.8697 45.9742 97.8697 45.1844C97.8697 44.3947 98.0386 43.7392 98.3764 43.2428C98.7598 42.6721 99.3325 42.3861 100.094 42.385C100.856 42.3839 101.428 42.6698 101.81 43.2428C102.148 43.7358 102.317 44.3831 102.317 45.1844ZM101.114 45.1674C101.114 43.8288 100.774 43.1586 100.094 43.1569C99.4141 43.1552 99.0726 43.8254 99.0698 45.1674C99.0698 46.4777 99.4113 47.1329 100.094 47.1329C100.777 47.1329 101.117 46.4777 101.114 45.1674Z" fill="#EEEEEE" fill-opacity="0.15"/>
<path d="M110.636 47.8716H109.426V44.0461C109.426 43.4595 109.125 43.1646 108.525 43.1646C108.358 43.1618 108.193 43.193 108.039 43.2565C107.885 43.3199 107.745 43.4141 107.628 43.5335V47.8691H106.413V44.0215C106.413 43.4502 106.079 43.1643 105.41 43.1637C105.138 43.1598 104.869 43.2119 104.618 43.3167V47.8716H103.406V42.776C103.94 42.5142 104.61 42.385 105.41 42.385C106.17 42.385 106.723 42.5831 107.081 42.975C107.503 42.5831 108.078 42.385 108.797 42.385C109.325 42.385 109.765 42.527 110.113 42.8143C110.461 43.1016 110.636 43.508 110.636 44.0359V47.8716Z" fill="#EEEEEE" fill-opacity="0.15"/>
<path d="M116.287 45.0561C116.287 45.9413 116.078 46.637 115.66 47.1431C115.21 47.6957 114.554 47.9725 113.694 47.9736C112.912 47.9736 112.322 47.8441 111.925 47.5851V40.3167H113.127V42.6366C113.459 42.4875 113.82 42.4137 114.183 42.4207C114.877 42.4207 115.414 42.6961 115.793 43.247C116.119 43.7231 116.287 44.325 116.287 45.0561ZM115.084 45.1292C115.084 43.7953 114.672 43.128 113.854 43.128C113.602 43.1182 113.352 43.1732 113.127 43.2878V47.1235C113.323 47.2047 113.534 47.243 113.745 47.2357C114.638 47.234 115.085 46.531 115.084 45.1266V45.1292Z" fill="#EEEEEE" fill-opacity="0.15"/>
<path d="M118.687 40.9543C118.688 41.0369 118.671 41.1188 118.637 41.1939C118.603 41.269 118.552 41.3353 118.488 41.3878C118.359 41.4997 118.194 41.5602 118.023 41.5578C117.852 41.5604 117.685 41.4999 117.554 41.3878C117.491 41.3352 117.44 41.269 117.405 41.194C117.371 41.1189 117.353 41.037 117.354 40.9543C117.354 40.8716 117.372 40.79 117.406 40.7151C117.441 40.6401 117.491 40.5738 117.554 40.5207C117.684 40.4069 117.851 40.3462 118.023 40.3507C118.194 40.348 118.359 40.4085 118.488 40.5207C118.552 40.5733 118.602 40.6396 118.637 40.7147C118.671 40.7897 118.688 40.8716 118.687 40.9543ZM118.628 47.8716H117.407V42.4845H118.628V47.8716Z" fill="#EEEEEE" fill-opacity="0.15"/>
<path d="M123.83 47.5826C123.345 47.8376 122.703 47.9711 121.888 47.9711C120.434 47.9711 119.707 47.4248 119.705 46.3321C119.705 45.6339 120.053 45.1178 120.748 44.784C121.178 44.5766 121.825 44.4321 122.69 44.3428V44.0546C122.69 43.4612 122.336 43.1643 121.628 43.1637C121.162 43.1691 120.704 43.2822 120.288 43.4944L120.009 42.7948C120.583 42.5189 121.211 42.3787 121.846 42.385C123.165 42.385 123.824 43.0044 123.823 44.2433L123.83 47.5826ZM122.697 47.1405V44.9217C122.106 44.9948 121.683 45.1003 121.44 45.232C121.04 45.4463 120.841 45.7999 120.841 46.2938C120.841 46.9578 121.217 47.2936 121.97 47.2936C122.221 47.2997 122.469 47.2474 122.697 47.1405Z" fill="#EEEEEE" fill-opacity="0.15"/>
</g>
<defs>
<clipPath id="clip0_389_4356">
<rect width="124" height="48" fill="white"/>
</clipPath>
</defs>
</svg>
