<svg width="40" height="40" viewBox="0 0 40 40" fill="none" xmlns="http://www.w3.org/2000/svg">
<mask id="mask0_367_1952" style="mask-type:alpha" maskUnits="userSpaceOnUse" x="0" y="0" width="40" height="40">
<rect width="40" height="40" fill="#D9D9D9"/>
</mask>
<g mask="url(#mask0_367_1952)">
<path d="M4.99996 16.6666C4.52774 16.6666 4.13218 16.4999 3.81329 16.1666C3.49329 15.8333 3.36107 15.4444 3.41662 14.9999C3.61107 13.1666 4.09051 11.4094 4.85496 9.72825C5.61829 8.04825 6.62496 6.54159 7.87496 5.20825C8.18051 4.9027 8.5694 4.74992 9.04163 4.74992C9.51385 4.74992 9.91663 4.91659 10.25 5.24992C10.5555 5.55547 10.7083 5.93047 10.7083 6.37492C10.7083 6.81936 10.5555 7.22214 10.25 7.58325C9.27774 8.63881 8.49329 9.78436 7.89662 11.0199C7.29885 12.2566 6.91662 13.5833 6.74996 14.9999C6.6944 15.4721 6.50718 15.8677 6.18829 16.1866C5.86829 16.5066 5.47218 16.6666 4.99996 16.6666ZM35 16.6666C34.5555 16.6666 34.1666 16.5066 33.8333 16.1866C33.5 15.8677 33.3055 15.4721 33.25 14.9999C33.0833 13.5833 32.7016 12.2566 32.105 11.0199C31.5072 9.78436 30.7222 8.63881 29.75 7.58325C29.4444 7.22214 29.2916 6.81936 29.2916 6.37492C29.2916 5.93047 29.4583 5.55547 29.7916 5.24992C30.125 4.91659 30.5205 4.74992 30.9783 4.74992C31.4372 4.74992 31.8194 4.9027 32.125 5.20825C33.375 6.54159 34.3822 8.04825 35.1466 9.72825C35.91 11.4094 36.3888 13.1666 36.5833 14.9999C36.6388 15.4444 36.5066 15.8333 36.1866 16.1666C35.8677 16.4999 35.4722 16.6666 35 16.6666ZM8.33329 31.6666C7.86107 31.6666 7.46496 31.5066 7.14496 31.1866C6.82607 30.8677 6.66662 30.4721 6.66662 29.9999C6.66662 29.5277 6.82607 29.1321 7.14496 28.8133C7.46496 28.4933 7.86107 28.3333 8.33329 28.3333H9.99996V16.6666C9.99996 14.361 10.6944 12.3121 12.0833 10.5199C13.4722 8.72881 15.2777 7.55547 17.5 6.99992V5.83325C17.5 5.13881 17.7433 4.54881 18.23 4.06325C18.7155 3.57659 19.3055 3.33325 20 3.33325C20.6944 3.33325 21.2844 3.57659 21.77 4.06325C22.2566 4.54881 22.5 5.13881 22.5 5.83325V6.99992C24.7222 7.55547 26.5277 8.72881 27.9166 10.5199C29.3055 12.3121 30 14.361 30 16.6666V28.3333H31.6666C32.1388 28.3333 32.5344 28.4933 32.8533 28.8133C33.1733 29.1321 33.3333 29.5277 33.3333 29.9999C33.3333 30.4721 33.1733 30.8677 32.8533 31.1866C32.5344 31.5066 32.1388 31.6666 31.6666 31.6666H8.33329ZM20 36.6666C19.0833 36.6666 18.2988 36.3405 17.6466 35.6883C16.9933 35.0349 16.6666 34.2499 16.6666 33.3333H23.3333C23.3333 34.2499 23.0072 35.0349 22.355 35.6883C21.7016 36.3405 20.9166 36.6666 20 36.6666ZM13.3333 28.3333H26.6666V16.6666C26.6666 14.8333 26.0138 13.2638 24.7083 11.9583C23.4027 10.6527 21.8333 9.99992 20 9.99992C18.1666 9.99992 16.5972 10.6527 15.2916 11.9583C13.9861 13.2638 13.3333 14.8333 13.3333 16.6666V28.3333Z" fill="black"/>
</g>
</svg>
