<svg width="26" height="21" viewBox="0 0 26 21" fill="none" xmlns="http://www.w3.org/2000/svg">
<path d="M25.9931 0.7971C25.9948 0.784674 25.9978 0.772247 25.9987 0.759821C26.0017 0.721506 25.9983 0.682674 25.9944 0.643841C25.9935 0.634004 25.9948 0.624684 25.9935 0.614846C25.9857 0.563588 25.9714 0.513365 25.9502 0.465212C25.9468 0.456928 25.942 0.449162 25.9381 0.440878C25.9372 0.439842 25.9372 0.438288 25.9368 0.436735C25.9364 0.4357 25.9351 0.435182 25.9346 0.433629C25.9316 0.427933 25.929 0.42172 25.926 0.416543C25.8991 0.369426 25.8667 0.330593 25.8303 0.297456C25.8221 0.290207 25.8126 0.286065 25.8039 0.279334C25.7719 0.253964 25.7381 0.233253 25.7018 0.219274C25.6857 0.21306 25.6697 0.209954 25.6533 0.20633C25.6217 0.198563 25.5901 0.194939 25.5572 0.195974C25.5399 0.196492 25.5234 0.197527 25.5061 0.200634C25.4948 0.202705 25.484 0.200634 25.4728 0.203741L0.345454 6.41486C0.166672 6.45938 0.0298804 6.63284 0.00434009 6.84926C-0.0212002 7.06569 0.069273 7.27797 0.230739 7.37997L7.4305 11.9223L8.69323 20.3034C8.69236 20.3096 8.69366 20.3163 8.69323 20.3226C8.6889 20.364 8.68847 20.4044 8.69279 20.4453C8.69496 20.466 8.69712 20.4857 8.70145 20.5059C8.71141 20.555 8.72743 20.6011 8.74907 20.6446C8.7534 20.6529 8.7534 20.6627 8.75816 20.671C8.75946 20.6736 8.76162 20.6757 8.76335 20.6777C8.76898 20.6876 8.77678 20.6954 8.78327 20.7052C8.80361 20.7352 8.82482 20.7627 8.84907 20.786C8.85296 20.7896 8.85556 20.7953 8.85989 20.7989C8.86638 20.8046 8.87374 20.8062 8.88023 20.8113C8.90664 20.832 8.93391 20.8491 8.96292 20.8626C8.9746 20.8678 8.98543 20.874 8.99755 20.8781C9.03651 20.8916 9.07676 20.9009 9.11746 20.9009C9.11789 20.9009 9.11832 20.9009 9.11875 20.9009C9.12049 20.9009 9.12222 20.8999 9.12395 20.8999C9.13131 20.9004 9.13867 20.9009 9.14603 20.9009C9.26594 20.9009 9.37416 20.8367 9.45424 20.7378L14.2502 16.9136L19.2717 20.8175C19.3427 20.8724 19.4249 20.9009 19.5076 20.9009C19.553 20.9009 19.5994 20.8921 19.6439 20.8745C19.7686 20.8248 19.8682 20.7098 19.9136 20.5618L25.9723 0.892369C25.9779 0.874765 25.9827 0.856643 25.9866 0.838003C25.9883 0.830237 25.9888 0.822471 25.9901 0.815222C25.9914 0.809526 25.9922 0.803313 25.9931 0.7971ZM20.9794 4.102L10.5932 13.2359C10.5763 13.2509 10.5629 13.2696 10.5481 13.2872C10.5425 13.2934 10.5369 13.2986 10.5321 13.3053C10.523 13.3172 10.5148 13.3291 10.5066 13.342C10.4988 13.3545 10.4927 13.3674 10.4858 13.3804C10.4698 13.4114 10.4564 13.4435 10.446 13.4777C10.4438 13.4844 10.4404 13.4896 10.4386 13.4963C10.4382 13.4984 10.4365 13.4994 10.436 13.5015L9.24559 18.1288L8.30233 11.8685L20.9794 4.102ZM9.91656 19.125L11.0966 14.463L12.9338 15.8915L13.4593 16.3L11.6741 17.7234L9.91656 19.125ZM22.5291 1.989L7.82269 10.9986L1.70169 7.13714L22.5291 1.989ZM19.289 19.5961L12.6204 14.4123L11.6104 13.6268L24.6637 2.14692L19.289 19.5961Z" fill="#DE9D00"/>
</svg>
