<svg width="99" height="98" viewBox="0 0 99 98" fill="none" xmlns="http://www.w3.org/2000/svg">
<g clip-path="url(#clip0_476_7408)">
<path d="M8.51327 19.9287C8.88946 19.9287 9.25993 19.7774 9.52536 19.5127C9.79271 19.2499 9.94548 18.885 9.94548 18.5107C9.94548 18.1382 9.79271 17.7714 9.52536 17.5086C9.25993 17.2439 8.88946 17.0927 8.51327 17.0927C8.13707 17.0927 7.76661 17.2439 7.50117 17.5086C7.23382 17.7714 7.08105 18.1382 7.08105 18.5107C7.08105 18.8831 7.23382 19.2499 7.50117 19.5127C7.76661 19.7774 8.13707 19.9287 8.51327 19.9287Z" fill="#F1D136"/>
<path d="M13.0968 19.9287C13.4749 19.9287 13.8434 19.7774 14.1089 19.5127C14.3762 19.2499 14.529 18.8831 14.529 18.5107C14.529 18.1382 14.3762 17.7714 14.1089 17.5086C13.8434 17.2439 13.473 17.0927 13.0968 17.0927C12.7206 17.0927 12.3501 17.2439 12.0847 17.5086C11.8173 17.7714 11.6646 18.1382 11.6646 18.5107C11.6646 18.8831 11.8173 19.2499 12.0847 19.5127C12.3501 19.7774 12.7187 19.9287 13.0968 19.9287Z" fill="#F1D136"/>
<path d="M17.6803 19.9287C18.0565 19.9287 18.4269 19.7774 18.6924 19.5127C18.9597 19.2499 19.1125 18.8831 19.1125 18.5107C19.1125 18.1382 18.9597 17.7714 18.6924 17.5086C18.4269 17.2439 18.0565 17.0927 17.6803 17.0927C17.3022 17.0927 16.9336 17.2439 16.6682 17.5086C16.4008 17.7714 16.248 18.1382 16.248 18.5107C16.248 18.8831 16.4008 19.2499 16.6682 19.5127C16.9336 19.7774 17.3041 19.9287 17.6803 19.9287Z" fill="#F1D136"/>
<path d="M54.349 48.8595C53.9728 48.8595 53.6023 49.0108 53.3369 49.2754C53.0695 49.5382 52.9167 49.905 52.9167 50.2775C52.9167 50.65 53.0695 51.0167 53.3369 51.2796C53.6023 51.5442 53.9728 51.6955 54.349 51.6955C54.7252 51.6955 55.0956 51.5442 55.3611 51.2796C55.6284 51.0167 55.7812 50.65 55.7812 50.2775C55.7812 49.905 55.6284 49.5382 55.3611 49.2754C55.0956 49.0108 54.7252 48.8595 54.349 48.8595Z" fill="#F1D136"/>
<path d="M54.349 59.4484C53.9728 59.4484 53.6023 59.5996 53.3369 59.8643C53.0695 60.1271 52.9167 60.4939 52.9167 60.8664C52.9167 61.2388 53.0695 61.6056 53.3369 61.8684C53.6023 62.1331 53.9728 62.2844 54.349 62.2844C54.7252 62.2844 55.0956 62.1331 55.3611 61.8684C55.6284 61.6056 55.7812 61.2388 55.7812 60.8664C55.7812 60.4939 55.6284 60.1271 55.3611 59.8643C55.0956 59.5996 54.7252 59.4484 54.349 59.4484Z" fill="#F1D136"/>
<path d="M42.1264 45.645H43.6542C45.0119 45.645 46.3009 46.0708 47.382 46.8763C48.0142 47.3473 48.9124 47.2216 49.3877 46.5959C49.8634 45.97 49.7366 45.0809 49.1045 44.6101C47.5228 43.4317 45.6381 42.8088 43.654 42.8088H42.1262C36.2815 42.8088 31.5266 47.5166 31.5266 53.3032V57.8413C31.5266 63.628 36.2815 68.3357 42.1262 68.3357H43.654C45.6355 68.3357 47.518 67.7144 49.0982 66.539C49.7307 66.0687 49.8583 65.1796 49.3831 64.5534C48.908 63.9271 48.01 63.801 47.3776 64.2713C46.2976 65.0745 45.01 65.4992 43.6542 65.4992H42.1264C37.8613 65.4992 34.3915 62.0639 34.3915 57.8411V53.303C34.3915 49.0803 37.8613 45.645 42.1264 45.645Z" fill="#F1D136"/>
<path d="M58.7639 40.7529C58.5135 40.01 57.7024 39.6082 56.952 39.8561C56.2015 40.1038 55.796 40.907 56.046 41.65L65.2132 68.8786C65.4133 69.4729 65.9721 69.8486 66.5718 69.8486C66.7219 69.8486 66.8747 69.825 67.025 69.7755C67.7756 69.5278 68.181 68.7245 67.931 67.9816L58.7639 40.7529Z" fill="#F1D136"/>
<path d="M23.792 19.929H81.8508C82.6418 19.929 83.2832 19.294 83.2832 18.5108C83.2832 17.7276 82.6418 17.0927 81.8508 17.0927H23.792C23.0009 17.0927 22.3596 17.7276 22.3596 18.5108C22.3596 19.294 23.0009 19.929 23.792 19.929Z" fill="#F1D136"/>
<path d="M87.962 19.9287H91.0174C91.8084 19.9287 92.4496 19.2938 92.4496 18.5107C92.4496 17.7275 91.8084 17.0927 91.0174 17.0927H87.962C87.171 17.0927 86.5298 17.7275 86.5298 18.5107C86.5298 19.2938 87.171 19.9287 87.962 19.9287Z" fill="#F1D136"/>
<path d="M91.0179 11.0419H8.51331C4.3537 11.0419 0.969482 14.3925 0.969482 18.5108V79.019C0.969482 83.1373 4.3537 86.488 8.51331 86.488H91.0179C95.1775 86.488 98.5617 83.1373 98.5617 79.019V18.5108C98.5617 14.3925 95.1775 11.0419 91.0179 11.0419ZM8.51331 13.8782H91.0179C93.5979 13.8782 95.697 15.9565 95.697 18.5108V23.1435H3.83423V18.5108C3.83423 15.9565 5.93332 13.8782 8.51331 13.8782ZM91.0179 83.6516H8.51331C5.93332 83.6516 3.83423 81.5734 3.83423 79.019V25.9798H95.697V79.019C95.697 81.5734 93.5979 83.6516 91.0179 83.6516Z" fill="#F1D136"/>
</g>
<defs>
<clipPath id="clip0_476_7408">
<rect width="97.5923" height="96.6239" fill="white" transform="translate(0.969482 0.453003)"/>
</clipPath>
</defs>
</svg>
