<svg width="54" height="26" viewBox="0 0 54 26" fill="none" xmlns="http://www.w3.org/2000/svg">
<path d="M15.06 0.42C14.9 0.259999 14.7 0.179999 14.46 0.179999H1.56C1.18 0.179999 1 0.379999 1 0.759999V13.68C1 13.9 1.1 14 1.3 14H4.44C4.66 14 4.76 13.9 4.76 13.68V9.02H11.9L13.92 13.78C13.98 13.92 14.1 14 14.24 14H17.26C17.56 14 17.58 13.86 17.58 13.64V13.42C17.58 13.18 17.54 13.06 17.44 12.84L15.22 8.14L16.9 6.56C17.08 6.38 17.16 6.16 17.16 5.9V2.7C17.16 2.54 17.12 2.38 17 2.26L15.06 0.42ZM13.26 3.28C13.36 3.38 13.4 3.48 13.4 3.6V5.6C13.4 5.7 13.36 5.78 13.26 5.88L12.06 7H4.76V2.66C4.76 2.4 4.88 2.28 5.1 2.28H12.02C12.16 2.28 12.26 2.32 12.34 2.4L13.26 3.28ZM31.2055 0.58C31.1055 0.32 30.9255 0.179999 30.6255 0.179999H23.8055C23.6255 0.179999 23.3055 0.339999 23.2255 0.58L18.8255 12.82C18.7455 13.04 18.6855 13.2 18.6855 13.4V13.68C18.6855 13.9 18.7855 14 18.9855 14H21.4455C21.5855 14 21.6855 13.9 21.7455 13.76L22.6855 11.14H31.1655L32.1255 13.76C32.1855 13.92 32.2655 14 32.4055 14H35.4455C35.6455 14 35.7455 13.9 35.7455 13.68V13.4C35.7455 13.2 35.6855 13.04 35.6055 12.82L31.2055 0.58ZM27.7855 2.28C27.8855 2.28 27.9455 2.32 27.9655 2.38L30.4455 9.16H23.4055L25.8855 2.4C25.9055 2.32 25.9855 2.28 26.1055 2.28H27.7855ZM52.5467 0.5C52.5467 0.279999 52.4467 0.179999 52.2267 0.179999H40.0067C39.7667 0.179999 39.5667 0.259999 39.4067 0.42L37.6867 2.04C37.4667 2.22 37.3067 2.36 37.3067 2.66V5.62C37.3067 5.92 37.3467 6.06 37.5667 6.28L39.0667 7.94C39.1867 8.06 39.3267 8.1 39.4667 8.1H47.8067C47.9467 8.12 48.0867 8.16 48.1867 8.26L48.9667 9.02C49.0267 9.08 49.0667 9.12 49.0867 9.18V10.74C49.0867 10.86 49.0467 10.96 48.9467 11.06L48.2667 11.76C48.1267 11.86 47.9867 11.9 47.8067 11.9H37.3867C37.1867 11.9 37.0867 12 37.0867 12.22V13.68C37.0867 13.9 37.1867 14 37.3867 14H49.9867C50.2467 14 50.4867 13.9 50.7067 13.72L52.5467 11.96C52.7067 11.8 52.7867 11.62 52.7867 11.4V8.3C52.7867 8.08 52.7067 7.88 52.5267 7.68L51.0667 6.12C50.8867 5.94 50.6467 5.84 50.3667 5.84H42.2267C42.1267 5.84 42.0467 5.8 41.9667 5.72L41.1667 4.94C41.0867 4.86 41.0467 4.78 41.0467 4.68V3.54C41.0467 3.38 41.1067 3.24 41.2267 3.14L41.9267 2.46C42.0467 2.34 42.1867 2.28 42.3667 2.28H52.2267C52.4467 2.28 52.5467 2.18 52.5467 1.98V0.5Z" fill="white"/>
<path d="M8.54 19.25C8.54 19.15 8.49 19.09 8.38 19.09H6.82C6.72 19.09 6.67 19.15 6.67 19.25V24.25C6.67 24.31 6.64 24.35 6.61 24.38L6.04 24.9C6 24.94 5.97 24.95 5.91 24.95H3.12C3.06 24.95 3.03 24.94 2.99 24.9L2.42 24.38C2.39 24.35 2.36 24.31 2.36 24.25V19.25C2.36 19.15 2.31 19.09 2.21 19.09H0.62C0.51 19.09 0.46 19.15 0.46 19.25V24.62C0.46 24.7 0.49 24.77 0.55 24.82L1.63 25.86C1.73 25.95 1.86 26 2 26H7C7.14 26 7.27 25.95 7.37 25.86L8.45 24.82C8.51 24.77 8.54 24.7 8.54 24.62V19.25ZM14.8739 20.6C14.8239 20.54 14.7539 20.51 14.6639 20.51H11.6639C11.5439 20.51 11.4239 20.53 11.2939 20.57L9.71391 21.03C9.57391 21.07 9.50391 21.17 9.50391 21.34V25.84C9.50391 25.95 9.55391 26 9.65391 26H10.8339C10.9339 26 10.9839 25.95 10.9839 25.84V21.82C10.9839 21.72 11.0339 21.66 11.1239 21.64L11.9539 21.43C12.0439 21.41 12.1239 21.4 12.2139 21.4H13.6939C13.7439 21.4 13.7939 21.42 13.8239 21.45L14.1939 21.83C14.2239 21.86 14.2439 21.9 14.2439 21.95V25.84C14.2439 25.95 14.2939 26 14.4039 26H15.5539C15.6639 26 15.7139 25.95 15.7139 25.84V21.57C15.7139 21.48 15.6839 21.4 15.6239 21.34L14.8739 20.6ZM18.1819 20.67C18.1819 20.57 18.1319 20.51 18.0219 20.51H16.8719C16.7719 20.51 16.7219 20.57 16.7219 20.67V25.84C16.7219 25.95 16.7719 26 16.8719 26H18.0219C18.1319 26 18.1819 25.95 18.1819 25.84V20.67ZM18.1819 18.79C18.1819 18.69 18.1319 18.63 18.0219 18.63H16.8719C16.7719 18.63 16.7219 18.69 16.7219 18.79V19.81C16.7219 19.91 16.7719 19.96 16.8719 19.96H18.0219C18.1319 19.96 18.1819 19.91 18.1819 19.81V18.79ZM24.1807 20.6C24.1207 20.54 24.0507 20.51 23.9707 20.51H19.3407C19.2407 20.51 19.1907 20.56 19.1907 20.67V21.21C19.1907 21.32 19.2407 21.37 19.3407 21.37H23.1207C23.1907 21.37 23.2307 21.39 23.2607 21.42L23.7207 21.89C23.7707 21.94 23.7907 21.99 23.7907 22.06V22.8H19.4707C19.2807 22.8 19.1907 22.9 19.1907 23.1V24.96C19.1907 25.05 19.2207 25.12 19.2807 25.17L20.0807 25.91C20.1607 25.97 20.2407 26 20.3307 26H24.9707C25.1607 26 25.2607 25.9 25.2607 25.7V21.8C25.2607 21.75 25.2107 21.63 25.1807 21.6L24.1807 20.6ZM23.7907 23.43V24.94C23.7907 25.05 23.7407 25.11 23.6307 25.11H21.1607C21.0907 25.11 21.0307 25.08 20.9807 25.03L20.6307 24.72C20.5807 24.67 20.5507 24.6 20.5507 24.52V23.6C20.5507 23.49 20.6107 23.43 20.7207 23.43H23.7907ZM31.6122 20.6C31.5622 20.54 31.4922 20.51 31.4022 20.51H28.4022C28.2822 20.51 28.1622 20.53 28.0322 20.57L26.4522 21.03C26.3122 21.07 26.2422 21.17 26.2422 21.34V25.84C26.2422 25.95 26.2922 26 26.3922 26H27.5722C27.6722 26 27.7222 25.95 27.7222 25.84V21.82C27.7222 21.72 27.7722 21.66 27.8622 21.64L28.6922 21.43C28.7822 21.41 28.8622 21.4 28.9522 21.4H30.4322C30.4822 21.4 30.5322 21.42 30.5622 21.45L30.9322 21.83C30.9622 21.86 30.9822 21.9 30.9822 21.95V25.84C30.9822 25.95 31.0322 26 31.1422 26H32.2922C32.4022 26 32.4522 25.95 32.4522 25.84V21.57C32.4522 21.48 32.4222 21.4 32.3622 21.34L31.6122 20.6ZM39.2702 18.76C39.2602 18.67 39.2102 18.63 39.1102 18.63H38.1102C38.0102 18.63 37.9602 18.68 37.9602 18.79V20.51H34.3702C34.3102 20.51 34.2502 20.54 34.1802 20.6L33.4302 21.34C33.3702 21.4 33.3402 21.47 33.3402 21.55V24.71C33.3402 24.78 33.3702 24.85 33.4302 24.91L34.4202 25.92C34.4702 25.97 34.5402 26 34.6302 26H39.2902C39.3902 26 39.4402 25.95 39.4402 25.84V20.5C39.4402 20.27 39.4302 20.08 39.4002 19.85L39.2702 18.76ZM37.9602 21.4V25.14H35.4202C35.3702 25.14 35.3202 25.12 35.2902 25.09L34.8002 24.59C34.7702 24.56 34.7502 24.51 34.7502 24.46V21.96C34.7502 21.91 34.7702 21.86 34.8002 21.83L35.1802 21.45C35.2102 21.42 35.2502 21.4 35.2802 21.4H37.9602ZM46.4512 20.8C46.4512 20.61 46.3512 20.51 46.1612 20.51H41.4312C41.3512 20.51 41.2712 20.55 41.2012 20.62L40.4712 21.34C40.4112 21.4 40.3812 21.47 40.3812 21.55V24.71C40.3812 24.78 40.4012 24.84 40.4612 24.9L41.4612 25.92C41.5112 25.97 41.5812 26 41.6712 26H46.2912C46.4012 26 46.4512 25.95 46.4512 25.84V25.3C46.4512 25.19 46.4012 25.14 46.2912 25.14H42.5612C42.4912 25.14 42.4512 25.13 42.4212 25.1L41.9012 24.58C41.8712 24.55 41.8512 24.49 41.8512 24.42V23.64H46.1612C46.3512 23.64 46.4512 23.54 46.4512 23.35V20.8ZM44.9212 21.4C45.0312 21.4 45.0912 21.45 45.0912 21.56V22.83C45.0912 22.93 45.0312 22.98 44.9212 22.98H41.8512V21.97C41.8512 21.9 41.8712 21.85 41.9212 21.8L42.2712 21.46C42.3112 21.42 42.3612 21.4 42.4212 21.4H44.9212ZM53.3729 20.67C53.3729 20.56 53.3229 20.51 53.2129 20.51H48.3729C48.2929 20.51 48.2229 20.54 48.1729 20.59L47.4629 21.33C47.4129 21.38 47.3829 21.45 47.3829 21.53V22.79C47.3829 22.88 47.4129 22.96 47.4729 23.02L48.0629 23.61C48.1229 23.67 48.1929 23.7 48.2729 23.7H51.5229C51.5829 23.7 51.6329 23.72 51.6629 23.75L52.0029 24.05C52.0329 24.08 52.0529 24.12 52.0529 24.17V24.75C52.0529 24.78 52.0329 24.82 52.0029 24.85L51.6829 25.15C51.6329 25.2 51.5629 25.23 51.4829 25.23H47.4629C47.3629 25.23 47.3129 25.28 47.3129 25.39V25.84C47.3129 25.95 47.3629 26 47.4629 26H52.3429C52.4529 26 52.5529 25.96 52.6229 25.89L53.3629 25.17C53.4229 25.11 53.4529 25.05 53.4529 24.98V23.76C53.4529 23.63 53.4229 23.54 53.3529 23.47L52.8129 22.92C52.7229 22.83 52.6029 22.78 52.4529 22.78H49.2129C49.1429 22.78 49.0829 22.75 49.0229 22.69L48.8229 22.45C48.7729 22.4 48.7529 22.34 48.7529 22.25V21.78C48.7529 21.73 48.7729 21.68 48.8129 21.64L49.0829 21.35C49.1329 21.3 49.1829 21.28 49.2529 21.28H53.2129C53.3229 21.28 53.3729 21.23 53.3729 21.12V20.67Z" fill="#AAAAAA"/>
</svg>
