<svg width="99" height="98" viewBox="0 0 99 98" fill="none" xmlns="http://www.w3.org/2000/svg">
<g clip-path="url(#clip0_476_7424)">
<path d="M58.0367 88.1225C57.4569 87.4718 56.4541 87.4093 55.796 87.9838C51.2692 91.9388 45.447 94.1171 39.4027 94.1171C25.7346 94.1171 14.6149 83.1075 14.6149 69.5752V54.7191H22.5336C23.4102 54.7191 24.1209 54.0154 24.1209 53.1475C24.1209 52.2797 23.4102 51.576 22.5336 51.576H20.4368V47.0386H23.1186C23.9951 47.0386 24.7059 46.3349 24.7059 45.467V30.7638C24.7059 29.8959 23.9951 29.1922 23.1186 29.1922H20.4368V25.1779H23.1186C23.9951 25.1779 24.7059 24.4742 24.7059 23.6064V13.1304C24.7059 9.93292 22.0784 7.33154 18.8489 7.33154C15.6195 7.33154 12.9917 9.93273 12.9917 13.1304V23.6064C12.9917 24.4742 13.7024 25.1779 14.579 25.1779H17.2621V29.1922H14.579C13.7024 29.1922 12.9917 29.8959 12.9917 30.7638V45.467C12.9917 46.3349 13.7024 47.0386 14.579 47.0386H17.2621V51.576H13.0275C12.1509 51.576 11.4402 52.2797 11.4402 53.1475V69.5752C11.4402 84.8408 23.9843 97.2602 39.4027 97.2602C46.2212 97.2602 52.7892 94.8027 57.8968 90.3408C58.554 89.7663 58.6167 88.7733 58.0367 88.1225ZM16.1664 22.0348V13.1304C16.1664 11.666 17.3698 10.4747 18.8487 10.4747C20.3276 10.4747 21.531 11.6662 21.531 13.1304V22.035H16.1664V22.0348ZM16.1664 43.8954V32.3352H21.5312V43.8954H16.1664Z" fill="#F1D136"/>
<path d="M85.795 54.0075H81.1762V48.7023H85.7947V48.7025C86.6714 48.7025 87.382 47.9988 87.382 47.1309V35.2263C87.382 30.9718 83.886 27.5102 79.5889 27.5102C75.2915 27.5102 71.7955 30.9716 71.7955 35.2263V47.1309C71.7955 47.9988 72.5061 48.7025 73.3829 48.7025H78.0015V54.0077H73.3829C72.5061 54.0077 71.7955 54.7114 71.7955 55.5793V63.2679H67.3648V53.1476C67.3648 52.2797 66.6542 51.576 65.7774 51.576H63.0951V47.0386H65.7774C66.6542 47.0386 67.3648 46.3349 67.3648 45.467V28.5334C67.3648 27.6656 66.6542 26.9619 65.7774 26.9619H63.0951V22.9476H65.7774C66.6542 22.9476 67.3648 22.2439 67.3648 21.376V10.9001C67.3648 7.70258 64.7375 5.1012 61.5078 5.1012C58.278 5.1012 55.6506 7.70258 55.6506 10.9001V21.3762C55.6506 22.2441 56.3611 22.9478 57.2379 22.9478H59.9204V26.962H57.2379C56.3611 26.962 55.6506 27.6657 55.6506 28.5336V45.4672C55.6506 46.3351 56.3611 47.0388 57.2379 47.0388H59.9204V51.5762H48.8752V47.0386H51.5576C52.4344 47.0386 53.1449 46.3349 53.1449 45.467V39.1582C53.1449 38.2904 52.4344 37.5867 51.5576 37.5867C50.6808 37.5867 49.9703 38.2904 49.9703 39.1582V43.8956H44.6054V28.9899H49.9703V33.9198C49.9703 34.7877 50.6808 35.4914 51.5576 35.4914C52.4344 35.4914 53.1449 34.7877 53.1449 33.9198V27.4183C53.1449 26.5505 52.4344 25.8468 51.5576 25.8468H48.8752V21.8325H51.5576C52.4344 21.8325 53.1449 21.1288 53.1449 20.2609V6.43916C53.1453 3.24164 50.5179 0.640259 47.2883 0.640259C44.0587 0.640259 41.4313 3.24164 41.4313 6.43916V20.2607C41.4313 21.1286 42.142 21.8323 43.0186 21.8323H45.701V25.8466H43.0186C42.142 25.8466 41.4313 26.5503 41.4313 27.4182V45.467C41.4313 46.3349 42.142 47.0386 43.0186 47.0386H45.701V51.576H34.6558V47.0386H37.3381C38.2147 47.0386 38.9254 46.3349 38.9254 45.467V28.5334C38.9254 27.6656 38.2147 26.9619 37.3381 26.9619H34.6558V22.9476H37.3381C38.2147 22.9476 38.9254 22.2439 38.9254 21.376V7.55444C38.9254 4.35692 36.298 1.75554 33.0684 1.75554C29.8391 1.75554 27.2114 4.35692 27.2114 7.55444V21.376C27.2114 22.2439 27.9222 22.9476 28.7988 22.9476H31.4811V26.9619H28.7988C27.9222 26.9619 27.2114 27.6656 27.2114 28.5334V45.467C27.2114 46.3349 27.9222 47.0386 28.7988 47.0386H31.4811V51.576H27.8244C26.9478 51.576 26.2371 52.2797 26.2371 53.1476C26.2371 54.0155 26.9478 54.7192 27.8244 54.7192H64.1905V69.5752C64.1905 75.2375 62.2986 80.5563 58.7193 84.9567C58.1692 85.6326 58.2769 86.6219 58.96 87.1663C59.2533 87.4001 59.605 87.5139 59.9546 87.5139C60.4185 87.5139 60.8782 87.3133 61.1918 86.928C65.1727 82.0339 67.3652 75.871 67.3652 69.5752V66.4111H71.7959V73.6282C71.7959 74.4961 72.5065 75.1998 73.3832 75.1998C81.1024 75.1998 87.3824 68.9821 87.3824 61.3395V55.5793C87.3824 54.7112 86.6718 54.0075 85.795 54.0075ZM44.6056 18.6891V6.43916H44.6058C44.6058 4.97476 45.8092 3.78343 47.2881 3.78343C48.767 3.78343 49.9704 4.97495 49.9704 6.43916V18.6891H44.6056ZM30.3859 19.8044V7.55444H30.3861C30.3861 6.09004 31.5895 4.89871 33.0684 4.89871C34.5473 4.89871 35.7508 6.09023 35.7508 7.55444V19.8044H30.3859ZM30.3861 43.8954V30.1048H35.751V43.8954H30.3861ZM58.8256 19.8044V10.9001C58.8256 9.4357 60.0291 8.24437 61.5082 8.24437C62.987 8.24437 64.1905 9.43589 64.1905 10.9001V19.8046H58.8256V19.8044ZM58.8256 43.8954V30.1048H64.1905V43.8954H58.8256ZM74.97 45.5595V35.2264H74.9702C74.9702 32.7051 77.0422 30.6536 79.5889 30.6536C82.1355 30.6536 84.2073 32.7051 84.2073 35.2264V45.5595H74.97ZM84.2073 61.3397C84.2073 66.7153 80.1891 71.1793 74.97 71.9419V57.1509H84.2073V61.3397Z" fill="#F1D136"/>
<path d="M27.7455 60.4405C23.7027 60.4405 20.4138 63.6967 20.4138 67.6994C20.4138 71.7018 23.7027 74.9582 27.7455 74.9582C31.788 74.9582 35.077 71.702 35.077 67.6994C35.0768 63.6967 31.788 60.4405 27.7455 60.4405ZM27.7451 71.815C25.4528 71.815 23.5881 69.9687 23.5881 67.6994C23.5883 65.4298 25.4531 63.5837 27.7451 63.5837C30.0371 63.5837 31.902 65.43 31.902 67.6994C31.902 69.9687 30.0373 71.815 27.7451 71.815Z" fill="#F1D136"/>
<path d="M51.06 60.4405C47.0173 60.4405 43.7283 63.6967 43.7283 67.6994C43.7283 71.7018 47.0171 74.9582 51.06 74.9582C55.1028 74.9582 58.3917 71.702 58.3917 67.6994C58.3917 63.6967 55.1028 60.4405 51.06 60.4405ZM51.0604 71.815C48.768 71.815 46.9033 69.9687 46.9033 67.6994C46.9033 65.4298 48.7682 63.5837 51.0604 63.5837C53.3523 63.5837 55.2174 65.43 55.2174 67.6994C55.2174 69.9687 53.3523 71.815 51.0604 71.815Z" fill="#F1D136"/>
</g>
<defs>
<clipPath id="clip0_476_7424">
<rect width="97.5882" height="96.62" fill="white" transform="translate(0.617188 0.640259)"/>
</clipPath>
</defs>
</svg>
