<svg width="61" height="61" viewBox="0 0 61 61" fill="none" xmlns="http://www.w3.org/2000/svg">
<path d="M47.5122 8.35645C46.1754 8.36383 44.8789 8.81502 43.8265 9.63913C42.774 10.4632 42.0252 11.6136 41.6977 12.9094H32.415C32.015 12.9094 31.6315 13.0682 31.3487 13.3509C31.0659 13.6337 30.907 14.0171 30.907 14.417C30.907 14.8168 31.0659 15.2003 31.3487 15.483C31.6315 15.7657 32.015 15.9246 32.415 15.9246H41.6977C41.985 17.0139 42.5718 18.0009 43.3915 18.7739C44.2113 19.5468 45.2312 20.0747 46.3356 20.2978C47.4401 20.5208 48.585 20.4301 49.6405 20.0359C50.6961 19.6418 51.6201 18.9598 52.3078 18.0675C52.9956 17.1751 53.4195 16.108 53.5317 14.987C53.6438 13.8661 53.4397 12.7361 52.9424 11.7252C52.445 10.7144 51.6744 9.86296 50.7179 9.26755C49.7613 8.67214 48.6571 8.35651 47.5303 8.35645H47.5122ZM47.5122 17.4683C46.9071 17.4755 46.3135 17.3027 45.8069 16.9718C45.3002 16.6409 44.9034 16.1669 44.6668 15.61C44.4303 15.0531 44.3647 14.4384 44.4783 13.8442C44.592 13.2499 44.8797 12.7028 45.3051 12.2724C45.7305 11.8421 46.2742 11.5478 46.8672 11.4271C47.4602 11.3064 48.0757 11.3647 48.6355 11.5946C49.1953 11.8244 49.6741 12.2155 50.0111 12.718C50.3481 13.2206 50.528 13.8119 50.5281 14.417C50.5328 14.816 50.4584 15.2119 50.309 15.5819C50.1595 15.9519 49.9382 16.2886 49.6576 16.5725C49.3771 16.8563 49.043 17.0816 48.6748 17.2354C48.3065 17.3892 47.9113 17.4684 47.5122 17.4683Z" fill="white"/>
<path d="M43.4408 28.8782C41.9868 28.8802 40.5825 29.4074 39.4864 30.3625C38.3903 31.3177 37.6762 32.6365 37.4755 34.0763H33.8565L27.3785 20.2065C27.2573 19.9459 27.0639 19.7256 26.8212 19.5717C26.5785 19.4178 26.2967 19.3367 26.0093 19.3381H20.3637C20.1892 17.8739 19.4868 16.5236 18.388 15.54C17.2892 14.5564 15.8695 14.0071 14.3947 13.9948C12.9199 13.9826 11.4912 14.5084 10.3763 15.4736C9.26136 16.4388 8.53665 17.7774 8.3379 19.2384C8.13915 20.6995 8.48 22.1829 9.29661 23.4108C10.1132 24.6387 11.3496 25.5268 12.774 25.9088C14.1985 26.2908 15.7135 26.1404 17.0351 25.4859C18.3567 24.8315 19.3943 23.7177 19.9535 22.3533H25.0201L31.5042 36.2231C31.6249 36.4828 31.8174 36.7025 32.0589 36.8563C32.3005 37.0102 32.581 37.0918 32.8673 37.0915H37.8133C38.2107 38.1146 38.8798 39.0099 39.7486 39.6808C40.6173 40.3518 41.6527 40.773 42.7432 40.899C43.8337 41.025 44.9379 40.8512 45.9369 40.3961C46.9358 39.941 47.7916 39.222 48.412 38.3165C49.0324 37.4111 49.3938 36.3535 49.4574 35.2578C49.521 34.1622 49.2843 33.0699 48.7728 32.0988C48.2614 31.1277 47.4945 30.3145 46.5549 29.747C45.6153 29.1795 44.5386 28.8791 43.4408 28.8782ZM14.3803 23.1192C13.7751 23.1263 13.1816 22.9535 12.6749 22.6226C12.1683 22.2917 11.7715 21.8177 11.5349 21.2608C11.2983 20.7039 11.2327 20.0893 11.3464 19.495C11.46 18.9007 11.7478 18.3536 12.1731 17.9233C12.5985 17.4929 13.1422 17.1987 13.7352 17.078C14.3282 16.9573 14.9437 17.0155 15.5035 17.2454C16.0633 17.4752 16.5421 17.8663 16.8791 18.3688C17.2161 18.8714 17.3961 19.4628 17.3961 20.0678C17.4009 20.4668 17.3264 20.8628 17.177 21.2328C17.0276 21.6028 16.8062 21.9394 16.5257 22.2233C16.2452 22.5071 15.9111 22.7324 15.5428 22.8862C15.1745 23.04 14.7794 23.1192 14.3803 23.1192ZM43.4408 37.972C42.8372 37.9779 42.2453 37.8044 41.7404 37.4734C41.2356 37.1425 40.8405 36.669 40.6053 36.1131C40.3701 35.5572 40.3055 34.9439 40.4196 34.3512C40.5337 33.7585 40.8214 33.213 41.2462 32.7841C41.6709 32.3552 42.2136 32.0622 42.8053 31.9422C43.3969 31.8222 44.0109 31.8807 44.5693 32.1103C45.1276 32.3399 45.6051 32.7302 45.9412 33.2316C46.2772 33.7331 46.4566 34.323 46.4567 34.9266C46.4607 35.3251 46.3856 35.7204 46.2358 36.0897C46.0861 36.459 45.8645 36.795 45.5841 37.0782C45.3037 37.3614 44.9698 37.5862 44.602 37.7396C44.2341 37.893 43.8394 37.972 43.4408 37.972Z" fill="white"/>
<path d="M36.1425 45.9501H26.1842C25.817 44.5191 24.9401 43.2712 23.718 42.4406C22.496 41.6101 21.0128 41.2539 19.5467 41.4389C18.0807 41.6239 16.7326 42.3374 15.7553 43.4456C14.778 44.5537 14.2388 45.9803 14.2388 47.4577C14.2388 48.935 14.778 50.3616 15.7553 51.4698C16.7326 52.5779 18.0807 53.2914 19.5467 53.4765C21.0128 53.6615 22.496 53.3053 23.718 52.4747C24.9401 51.6442 25.817 50.3963 26.1842 48.9653H36.1425C36.5424 48.9653 36.9259 48.8064 37.2087 48.5237C37.4915 48.241 37.6504 47.8575 37.6504 47.4577C37.6504 47.0578 37.4915 46.6744 37.2087 46.3917C36.9259 46.1089 36.5424 45.9501 36.1425 45.9501ZM20.3576 50.509C19.7525 50.5162 19.1589 50.3434 18.6522 50.0125C18.1456 49.6816 17.7488 49.2076 17.5122 48.6507C17.2757 48.0938 17.21 47.4791 17.3237 46.8849C17.4373 46.2906 17.7251 45.7435 18.1505 45.3132C18.5758 44.8828 19.1196 44.5886 19.7126 44.4679C20.3056 44.3472 20.9211 44.4054 21.4809 44.6353C22.0407 44.8651 22.5195 45.2562 22.8565 45.7587C23.1934 46.2613 23.3734 46.8526 23.3734 47.4577C23.3782 47.8567 23.3038 48.2527 23.1543 48.6227C23.0049 48.9927 22.7835 49.3293 22.503 49.6132C22.2225 49.897 21.8884 50.1223 21.5201 50.2761C21.1519 50.4299 20.7567 50.5091 20.3576 50.509Z" fill="white"/>
</svg>
